<svg xmlns="http://www.w3.org/2000/svg" xmlns:xlink="http://www.w3.org/1999/xlink" width="96.666" height="85.173" viewBox="0 0 96.666 85.173">
  <defs>
    <clipPath id="clip-path">
      <rect id="Retângulo_93" data-name="Retângulo 93" width="96.666" height="85.173" fill="#9873ac"/>
    </clipPath>
  </defs>
  <g id="Grupo_68" data-name="Grupo 68" clip-path="url(#clip-path)">
    <path id="Caminho_164" data-name="Caminho 164" d="M183.552,317.4c-.074-.036-.144-.081-.273-.154a3.353,3.353,0,0,0,1.623-2.32,2.457,2.457,0,0,0-1.121-2.526,3.159,3.159,0,0,0,1.148-2.3,2.417,2.417,0,0,0-1.28-2.2,3.142,3.142,0,0,0,1.265-2.289,2.45,2.45,0,0,0-1.165-2.274,3.043,3.043,0,0,0,1.164-2.553,2.546,2.546,0,0,0-1.645-2.14,3.267,3.267,0,0,0,1.623-2.311,2.422,2.422,0,0,0-1.1-2.5c.172-.2.3-.338.424-.485a2.523,2.523,0,0,0-.857-4.131,4.1,4.1,0,0,0-.862-.279,21.114,21.114,0,0,0-6.608-.046,23.359,23.359,0,0,0-8.913,2.515,1.412,1.412,0,0,1,0-2.144,6.39,6.39,0,0,1,1.559-1.155,13.87,13.87,0,0,1,6.153-1.335c.645-.015,1.01-.359,1-.935a.891.891,0,0,0-1.03-.9,17.047,17.047,0,0,0-5.1.774,8.072,8.072,0,0,0-3.9,2.347,3.483,3.483,0,0,0-.878,2.3,3.822,3.822,0,0,0,.821,2.245c-1.029,1.382-1.276,3.005.312,4.857a3.285,3.285,0,0,0-1.131,2.258,3.8,3.8,0,0,0,.832,2.421,3.483,3.483,0,0,0-.834,2.293,3.858,3.858,0,0,0,.86,2.219c-1.14,1.766-1.143,2.676-.046,4.54-1.164,1.969-1.1,3.049.325,4.829-1.442,1.756-1.5,2.617-.316,4.718-.054.079-.114.163-.172.249a3.224,3.224,0,0,0,.1,4.025,7.111,7.111,0,0,0,1.566,1.415,10.616,10.616,0,0,0,4,1.532,23.893,23.893,0,0,0,9.045-.084,15.41,15.41,0,0,0,2.681-.864.9.9,0,0,0,.46-1.207.834.834,0,0,0-1.139-.455c-.282.112-.559.243-.845.34a18.284,18.284,0,0,1-5.255.779,16.431,16.431,0,0,1-6.538-.875,5.828,5.828,0,0,1-2.6-1.668,1.356,1.356,0,0,1,.055-1.982c.667.309,1.313.656,1.988.912a19.188,19.188,0,0,0,8.185.929,14.77,14.77,0,0,0,4.972-.95,7.021,7.021,0,0,0,2.081-1.352,2.5,2.5,0,0,0-.627-4.069m-14.875-6.1q0-.126-.008-.252c1.217-.362,2.425-.768,3.655-1.069a9.306,9.306,0,0,1,2.131-.232,37.384,37.384,0,0,0,6.093-.507,5.433,5.433,0,0,1,2.2.3c.542.143.628.6.254,1.081a2.494,2.494,0,0,1-1.956,1.066,25.556,25.556,0,0,0-5.825.647,9.28,9.28,0,0,1-4.123-.279c-.821-.185-1.618-.5-2.426-.751m1.4,2.5c-.8.374-1.6.749-2.394,1.107a.394.394,0,0,1-.32-.033,1.577,1.577,0,0,1-.432-2.435l3.147,1.361m1.215-8.063a24.754,24.754,0,0,1,5.132-.541c1.532-.095,3.05-.432,4.582-.548a5.876,5.876,0,0,1,1.892.339.487.487,0,0,1,.244.752,2.3,2.3,0,0,1-.662.781,4.572,4.572,0,0,1-2.414.768c-2.037.094-4.072.291-6.1.484a10.5,10.5,0,0,1-3.9-.577c-.45-.129-.882-.326-1.323-.492l-.023-.177c.859-.264,1.714-.549,2.579-.788m-1.815-3.229c-.266-.094-.523-.217-.887-.37a18.852,18.852,0,0,1,4.74-1.461,28.618,28.618,0,0,1,7.746-.568,6.567,6.567,0,0,1,1.619.332c.591.2.693.657.272,1.154a2.8,2.8,0,0,1-2.12,1.088,50.745,50.745,0,0,0-6.546.623,10.424,10.424,0,0,1-4.824-.8m13.608-6.169a2.919,2.919,0,0,1-1.068.921,13.655,13.655,0,0,1-2.846.805,21.977,21.977,0,0,1-7.74-.029c-.616-.13-1.221-.318-1.96-.514a17.162,17.162,0,0,1,5.069-1.729c.836-.145,1.707-.039,2.553-.137,1.343-.155,2.675-.451,4.02-.556a4.694,4.694,0,0,1,1.824.374.531.531,0,0,1,.148.864m-14.347-3.79a19.566,19.566,0,0,1,4.715-1.421,28.012,28.012,0,0,1,7.49-.548,7.3,7.3,0,0,1,1.811.372c.527.173.611.575.264,1.047a2.476,2.476,0,0,1-1.986,1.112,29.31,29.31,0,0,0-6.123.686,9.349,9.349,0,0,1-4.018-.376c-.738-.179-1.454-.462-2.18-.7l.029-.174m-1.808,1.311,3.139,1.351c-.8.373-1.625.757-2.449,1.131a.291.291,0,0,1-.226-.015,1.578,1.578,0,0,1-.464-2.467m.384,4.79a.367.367,0,0,1,.276-.016c.758.32,1.511.652,2.237.968l-2.862,1.282a1.32,1.32,0,0,1,.349-2.234m-.35,4.7,2.158,1.041c-.641.327-1.282.666-1.935.973a.4.4,0,0,1-.363-.124,1.323,1.323,0,0,1,.14-1.89m.07,4.525L169.2,308.9c-.677.34-1.332.682-2,.989a.424.424,0,0,1-.4-.124,1.315,1.315,0,0,1,.234-1.892m-.08,11.61a1.3,1.3,0,0,1,.148-2.081.551.551,0,0,1,.711-.089c.66.321,1.346.58,2.037.871l-2.9,1.3m15.867.885a4.78,4.78,0,0,1-2.472,1.1,21.28,21.28,0,0,1-10.192-.144c-.338-.1-.668-.23-1-.357-.154-.059-.3-.142-.451-.214l-.031-.142c.884-.3,1.758-.64,2.655-.883a30.39,30.39,0,0,1,8.791-1.088,11.6,11.6,0,0,1,2.427.328c.8.195.894.806.27,1.395m.193-5.3a4.026,4.026,0,0,1-1.312.942,13.041,13.041,0,0,1-4.222.848,19.3,19.3,0,0,1-7.124-.5c-.251-.074-.5-.163-.747-.245l-.032-.177,3.847-1.305c1.482-.5,3.029-.212,4.534-.438.976-.146,1.959-.264,2.922-.483a2.93,2.93,0,0,1,1.858.215.661.661,0,0,1,.277,1.143" transform="translate(-140.917 -243.682)" fill="#9873ac"/>
    <path id="Caminho_165" data-name="Caminho 165" d="M25.294,367.916a2.736,2.736,0,0,0,1.09-1.7,2.195,2.195,0,0,0-.789-2.15,2.566,2.566,0,0,0,.823-1.778,2.156,2.156,0,0,0-.907-1.82,2.627,2.627,0,0,0,.891-1.743,2.152,2.152,0,0,0-.834-1.894,2.542,2.542,0,0,0,.833-2.038,2.192,2.192,0,0,0-1.128-1.724,2.762,2.762,0,0,0,1.1-1.71,2.185,2.185,0,0,0-.788-2.145,2.431,2.431,0,0,0,.8-2.24,2.681,2.681,0,0,0-1.879-1.869,5.326,5.326,0,0,0-.953-.246,26.346,26.346,0,0,0-6.735-.04,29.459,29.459,0,0,0-8.73,1.9.51.51,0,0,1-.118-.294c.007-.153.192-.323.3-.41a6,6,0,0,1,1.436-.851,16.091,16.091,0,0,1,5.97-1.029c1.122-.021,1.509-.693,1.5-1.262s-.412-1.222-1.515-1.222h-.025a21.412,21.412,0,0,0-5.227.634,9.168,9.168,0,0,0-4.117,2,3,3,0,0,0-1.037,2.2,2.918,2.918,0,0,0,.669,1.792,2.751,2.751,0,0,0,.233,3.857,2.707,2.707,0,0,0-.9,1.807,2.949,2.949,0,0,0,.671,1.948,2.793,2.793,0,0,0-.673,1.856,2.967,2.967,0,0,0,.715,1.778,55.652,55.652,0,0,0,.227,7.465c-1.2,1.291-1.253,2.2-.249,3.743a2.672,2.672,0,0,0,.206,3.809,7.245,7.245,0,0,0,1.683,1.218A12.669,12.669,0,0,0,12,377.036a27.349,27.349,0,0,0,4.229.322,33.508,33.508,0,0,0,4.969-.388,17.991,17.991,0,0,0,2.652-.676l.1-.032a1.243,1.243,0,0,0,.8-.69,1.172,1.172,0,0,0-.039-.985,1.407,1.407,0,0,0-1.746-.62c-.1.033-.207.068-.309.1-.178.06-.346.117-.515.163a21.855,21.855,0,0,1-5.138.605,19.45,19.45,0,0,1-6.376-.678,5.753,5.753,0,0,1-2.4-1.21.684.684,0,0,1-.252-.413.409.409,0,0,1,.091-.215l.3.118c.451.175.917.356,1.4.5a24.513,24.513,0,0,0,8.358.763,18.4,18.4,0,0,0,5.11-.786,7.866,7.866,0,0,0,2.226-1.159,2.4,2.4,0,0,0,.95-2.219,2.274,2.274,0,0,0-1.128-1.624m-12.872,2.547A37.352,37.352,0,0,1,21.1,369.6a13.827,13.827,0,0,1,2.341.253,1.043,1.043,0,0,1,.223.066,1,1,0,0,1-.161.147,5.033,5.033,0,0,1-2.246.787,25.717,25.717,0,0,1-9.987-.106c.384-.105.772-.206,1.157-.289m9.6-22.277a37.089,37.089,0,0,0-6.208.555,11.226,11.226,0,0,1-3.843-.3c-.245-.047-.487-.1-.731-.167a32.488,32.488,0,0,1,3.281-.669,34.5,34.5,0,0,1,7.381-.431,8.408,8.408,0,0,1,1.707.281l.018,0a2.16,2.16,0,0,1-1.606.723m-5.088,3.087c.388,0,.789,0,1.19-.042.579-.053,1.16-.128,1.723-.2.749-.1,1.524-.2,2.283-.243a4.747,4.747,0,0,1,1.472.231,2.1,2.1,0,0,1-.747.5,16.15,16.15,0,0,1-2.757.625,26.463,26.463,0,0,1-7.6-.019l-.225-.04a19.809,19.809,0,0,1,3.319-.751,10.265,10.265,0,0,1,1.34-.065m-8.822,9.8.679.257c-.232.092-.462.181-.694.267a.4.4,0,0,1-.1-.288.438.438,0,0,1,.119-.236m.344-7.466q.418.141.833.285l-1.208.432a.4.4,0,0,1-.091-.288c.024-.159.2-.318.466-.43m6.664,6.286-.211.016a11.778,11.778,0,0,1-3.509-.394c.328-.08.658-.159.986-.231a21.668,21.668,0,0,1,3.924-.376c.375-.013.75-.027,1.124-.045.818-.041,1.637-.135,2.43-.228.709-.082,1.441-.167,2.158-.211a5.614,5.614,0,0,1,1.479.2l.1.022a1.348,1.348,0,0,1-.374.322,4.919,4.919,0,0,1-2.193.553c-1.977.073-3.977.225-5.912.372m1,3.67a11.2,11.2,0,0,1-3.943-.223c-.289-.052-.574-.117-.861-.189.689-.169,1.392-.336,2.089-.472a10.992,10.992,0,0,1,2.037-.176,46.948,46.948,0,0,0,6.16-.41,5.849,5.849,0,0,1,1.888.2l.142.03.008,0-.012.013a2.209,2.209,0,0,1-1.579.7h-.011a32.33,32.33,0,0,0-5.917.525m-8.066-6.1.679.262c-.208.084-.417.166-.625.246a.481.481,0,0,1-.125-.329.346.346,0,0,1,.072-.178M23.6,355.1a2.582,2.582,0,0,1-1.77.731H21.82a52.811,52.811,0,0,0-5.608.4l-.98.1a11.288,11.288,0,0,1-4-.447,30.158,30.158,0,0,1,3.166-.649,35.317,35.317,0,0,1,7.636-.448,7.474,7.474,0,0,1,1.516.249c.036.01.066.019.091.029l-.036.036M8.089,364.737l1.471.508c-.339.126-.68.251-1.019.373a.849.849,0,0,1-.511-.555.516.516,0,0,1,.058-.326m6.45,1.642a10.374,10.374,0,0,1,2.614-.247A17.2,17.2,0,0,0,19,366.042l.651-.076c.755-.086,1.537-.176,2.3-.315a3.1,3.1,0,0,1,1.6.153.732.732,0,0,1,.112.047l0,0a3.6,3.6,0,0,1-1.147.657,15.389,15.389,0,0,1-4.089.651,25.812,25.812,0,0,1-6.051-.2Zm-6.028-15.61a.8.8,0,0,1-.492-.556.519.519,0,0,1,.055-.33l1.472.506q-.516.191-1.035.38M8,368.934c0-.036.041-.172.383-.416.045-.032.068-.049.1-.049a.41.41,0,0,1,.131.038c.219.085.443.166.666.243l-1.183.424a.406.406,0,0,1-.1-.239" transform="translate(-4.487 -292.186)" fill="#9873ac"/>
    <path id="Caminho_166" data-name="Caminho 166" d="M545.65,328.3c-.074-.035-.144-.078-.273-.148A3.222,3.222,0,0,0,547,325.924a2.321,2.321,0,0,0-1.121-2.424,2.989,2.989,0,0,0,1.148-2.211,2.3,2.3,0,0,0-1.28-2.108,2.986,2.986,0,0,0,1.265-2.2,2.324,2.324,0,0,0-1.165-2.181,2.872,2.872,0,0,0,1.164-2.449,2.461,2.461,0,0,0-1.645-2.053,3.14,3.14,0,0,0,1.623-2.217,2.288,2.288,0,0,0-1.1-2.4c.172-.188.3-.324.424-.465a2.376,2.376,0,0,0-.857-3.963,4.227,4.227,0,0,0-.862-.268,22,22,0,0,0-6.608-.044,24.122,24.122,0,0,0-8.913,2.413,1.319,1.319,0,0,1,0-2.057,6.384,6.384,0,0,1,1.559-1.108,14.369,14.369,0,0,1,6.153-1.281c.645-.014,1.01-.345,1-.9s-.385-.875-1.03-.868a17.716,17.716,0,0,0-5.1.742,8.141,8.141,0,0,0-3.9,2.251,3.265,3.265,0,0,0-.878,2.2,3.576,3.576,0,0,0,.821,2.154c-1.029,1.325-1.276,2.883.312,4.659a3.108,3.108,0,0,0-1.131,2.166,3.555,3.555,0,0,0,.832,2.322,3.262,3.262,0,0,0-.834,2.2,3.617,3.617,0,0,0,.86,2.128c-1.14,1.694-1.143,2.567-.046,4.355-1.164,1.888-1.1,2.925.325,4.632-1.442,1.685-1.5,2.51-.316,4.526-.054.075-.114.157-.172.239a3,3,0,0,0,.1,3.861,7.02,7.02,0,0,0,1.566,1.357,10.888,10.888,0,0,0,4,1.47,24.889,24.889,0,0,0,9.045-.08,15.9,15.9,0,0,0,2.681-.829.867.867,0,1,0-.679-1.6c-.282.108-.559.233-.845.326a19.007,19.007,0,0,1-5.255.747,17.076,17.076,0,0,1-6.538-.84,5.863,5.863,0,0,1-2.6-1.6,1.265,1.265,0,0,1,.055-1.9c.667.3,1.313.629,1.988.875a19.954,19.954,0,0,0,8.185.891,15.324,15.324,0,0,0,4.972-.912,7.054,7.054,0,0,0,2.081-1.3,2.351,2.351,0,0,0-.627-3.9m-14.875-5.849q0-.121-.008-.242c1.217-.347,2.425-.736,3.655-1.026a9.691,9.691,0,0,1,2.131-.222,38.924,38.924,0,0,0,6.094-.487,5.648,5.648,0,0,1,2.2.285c.542.137.628.578.254,1.037a2.524,2.524,0,0,1-1.956,1.023,26.589,26.589,0,0,0-5.825.621,9.656,9.656,0,0,1-4.123-.268c-.821-.177-1.618-.476-2.426-.721m1.4,2.393c-.8.359-1.6.719-2.394,1.062a.408.408,0,0,1-.32-.032,1.479,1.479,0,0,1-.432-2.335l3.147,1.3m1.215-7.735a25.772,25.772,0,0,1,5.132-.519c1.532-.091,3.05-.414,4.582-.526a6.1,6.1,0,0,1,1.892.325.46.46,0,0,1,.244.721,2.238,2.238,0,0,1-.662.749,4.71,4.71,0,0,1-2.414.736c-2.037.09-4.072.279-6.1.464a10.91,10.91,0,0,1-3.9-.553c-.45-.124-.882-.313-1.323-.472l-.023-.17c.859-.253,1.714-.527,2.579-.756m-1.815-3.1c-.266-.091-.523-.208-.887-.355a19.445,19.445,0,0,1,4.74-1.4,29.8,29.8,0,0,1,7.746-.545,6.8,6.8,0,0,1,1.619.318c.591.189.693.63.272,1.107a2.841,2.841,0,0,1-2.12,1.044,52.855,52.855,0,0,0-6.546.6,10.819,10.819,0,0,1-4.824-.765m13.608-5.918a2.891,2.891,0,0,1-1.068.883,14.106,14.106,0,0,1-2.846.772,22.894,22.894,0,0,1-7.74-.028c-.616-.125-1.221-.306-1.96-.493a17.665,17.665,0,0,1,5.069-1.659c.836-.139,1.707-.037,2.553-.131,1.344-.149,2.675-.432,4.021-.533a4.865,4.865,0,0,1,1.824.359.5.5,0,0,1,.148.829m-14.347-3.635a20.187,20.187,0,0,1,4.715-1.363,29.177,29.177,0,0,1,7.49-.526,7.571,7.571,0,0,1,1.811.357c.527.166.611.551.264,1a2.5,2.5,0,0,1-1.986,1.066,30.5,30.5,0,0,0-6.123.658,9.728,9.728,0,0,1-4.018-.36c-.738-.171-1.454-.444-2.18-.67l.029-.167m-1.808,1.257,3.139,1.3c-.8.358-1.625.725-2.449,1.085a.3.3,0,0,1-.226-.014,1.482,1.482,0,0,1-.464-2.367m.384,4.595a.381.381,0,0,1,.276-.015c.758.307,1.511.625,2.237.928l-2.862,1.23a1.243,1.243,0,0,1,.349-2.143m-.35,4.507,2.158,1c-.641.314-1.282.639-1.935.934a.409.409,0,0,1-.363-.119,1.234,1.234,0,0,1,.14-1.813m.07,4.341,2.166.984c-.677.326-1.332.655-2,.949a.435.435,0,0,1-.4-.119,1.228,1.228,0,0,1,.234-1.814m-.08,11.137a1.221,1.221,0,0,1,.148-2,.568.568,0,0,1,.711-.085c.66.308,1.346.557,2.037.836l-2.9,1.246m15.867.848a4.877,4.877,0,0,1-2.472,1.06,22.154,22.154,0,0,1-10.192-.138c-.338-.094-.668-.221-1-.342-.154-.057-.3-.136-.451-.206l-.031-.136c.885-.285,1.758-.614,2.655-.847a31.613,31.613,0,0,1,8.791-1.044,12.062,12.062,0,0,1,2.427.315c.8.187.894.773.27,1.338m.193-5.085a4.025,4.025,0,0,1-1.312.9,13.521,13.521,0,0,1-4.222.814,20.092,20.092,0,0,1-7.124-.481c-.251-.071-.5-.156-.747-.235l-.032-.169,3.847-1.252c1.482-.482,3.029-.2,4.534-.42.976-.14,1.959-.253,2.922-.463a3.042,3.042,0,0,1,1.858.206c.534.218.679.68.277,1.1" transform="translate(-450.589 -254.129)" fill="#9873ac"/>
    <path id="Caminho_167" data-name="Caminho 167" d="M367.8,439.731a1.813,1.813,0,0,0,.873-1.061,1.311,1.311,0,0,0-.63-1.5,1.593,1.593,0,0,0,.671-1.161,1.359,1.359,0,0,0-.737-1.237,1.654,1.654,0,0,0,.72-1.12,1.338,1.338,0,0,0-.669-1.3,1.528,1.528,0,0,0,.669-1.372,1.443,1.443,0,0,0-.915-1.138,1.845,1.845,0,0,0,.879-1.065,1.31,1.31,0,0,0-.626-1.5,1.44,1.44,0,0,0,.679-1.368c-.1-.686-.773-1.207-1.89-1.467a7.254,7.254,0,0,0-.909-.156,39.142,39.142,0,0,0-6.671-.026,41.5,41.5,0,0,0-8.821,1.3.878.878,0,0,1-.13-.119,1.088,1.088,0,0,1,.242-.163,7.318,7.318,0,0,1,1.481-.583,23.742,23.742,0,0,1,6.059-.7,1.59,1.59,0,0,0,1.2-.392.784.784,0,0,0,.2-.551c-.007-.273-.158-.9-1.412-.9h-.022a31.309,31.309,0,0,0-5.166.417,11.338,11.338,0,0,0-4.035,1.3,1.94,1.94,0,0,0-1.077,1.592,1.566,1.566,0,0,1,0,2.422,1.835,1.835,0,0,0,.771,1.334,1.517,1.517,0,0,0-.194,2.508,1.61,1.61,0,0,0-.573,1.248,1.421,1.421,0,0,1,0,2.342,1.636,1.636,0,0,1,.006,2.552,1.842,1.842,0,0,0,.805,1.252,1.727,1.727,0,0,0-.814,1.181,1.753,1.753,0,0,0,.606,1.3,1.66,1.66,0,0,0-.605,1.274,1.809,1.809,0,0,0,.947,1.4,7.728,7.728,0,0,0,1.65.8,17.259,17.259,0,0,0,4.085.836,40.417,40.417,0,0,0,4.19.212c1.579,0,3.215-.086,4.931-.257a25.389,25.389,0,0,0,2.617-.445l.1-.021a.993.993,0,0,0,.823-.619.777.777,0,0,0-.126-.724,1.51,1.51,0,0,0-1.53-.4c-.1.021-.2.044-.3.067-.182.041-.354.08-.532.112a32.641,32.641,0,0,1-5.2.409,29.134,29.134,0,0,1-6.457-.459,7.356,7.356,0,0,1-2.468-.833,1.055,1.055,0,0,1-.18-.141.823.823,0,0,1,.095-.08l.463.119c.447.116.909.235,1.381.331a36.078,36.078,0,0,0,8.272.5,26.725,26.725,0,0,0,5.042-.515,9.488,9.488,0,0,0,2.17-.753,1.608,1.608,0,0,0,1-1.515,1.508,1.508,0,0,0-.935-1.182M350.384,427.8l1.194.273-.657.161a.21.21,0,0,1-.05,0c-.41-.11-.558-.285-.566-.332a.246.246,0,0,1,.081-.1m.4,2.511a.342.342,0,0,1,.1-.005l.426.1-.906.216a.648.648,0,0,1-.106-.088,1.208,1.208,0,0,1,.487-.219m-.4,2.538.415.107-.31.079a.444.444,0,0,1-.1-.019.479.479,0,0,1-.106-.093.566.566,0,0,1,.1-.074m-.087,2.515a.633.633,0,0,1,.151-.108l.4.1-.355.089a.457.457,0,0,1-.123-.019.513.513,0,0,1-.074-.063m.114,5.151c-.033-.027-.059-.05-.079-.07a1.75,1.75,0,0,1,.306-.176.558.558,0,0,1,.455-.022l.214.054Zm.561-2.4a.387.387,0,0,1-.123-.01c-.409-.13-.529-.287-.539-.309a.284.284,0,0,1,.081-.105l1.2.275-.616.149m5.9-11.8a51.971,51.971,0,0,1,7.436-.29,12.271,12.271,0,0,1,1.54.156,3.1,3.1,0,0,1-1.437.323,54.947,54.947,0,0,0-6.166.367,17,17,0,0,1-3.931-.2l-.12-.016c.912-.145,1.827-.247,2.677-.342m8.936,2.231a2,2,0,0,1-.487.174,23.615,23.615,0,0,1-2.8.422,41.11,41.11,0,0,1-7.257.029c.878-.164,1.769-.288,2.69-.373.445-.041.9-.043,1.373-.045.383,0,.779,0,1.168-.027.574-.035,1.153-.085,1.714-.133.754-.064,1.533-.131,2.3-.163a6.341,6.341,0,0,1,1.3.114m-9.059,2.852a53.233,53.233,0,0,1,7.691-.3,11.174,11.174,0,0,1,1.409.144,3.75,3.75,0,0,1-1.623.358h-.013c-1.881,0-3.761.134-5.579.263l-.981.069a15.747,15.747,0,0,1-3.486-.2c.833-.134,1.684-.233,2.582-.331m-1,4.954a16.729,16.729,0,0,1,2.084-.12c2.237-.01,4.241-.1,6.126-.272a8.46,8.46,0,0,1,1.883.123,3.2,3.2,0,0,1-1.4.311h-.013a48.246,48.246,0,0,0-5.871.347,16.956,16.956,0,0,1-4.034-.149l-.227-.029c.482-.076.968-.149,1.452-.212m-1.348-2.213.321-.048a33.032,33.032,0,0,1,3.971-.254c.373-.009.747-.018,1.12-.03.81-.027,1.625-.09,2.413-.151.712-.055,1.448-.112,2.172-.141a7.821,7.821,0,0,1,1.416.117c-.027.012-.055.023-.083.033a7.282,7.282,0,0,1-2.3.387c-1.975.048-3.976.15-5.912.248l-.2.01a15.511,15.511,0,0,1-2.918-.17m9.285,7.466a39.775,39.775,0,0,1-9.448.018q.262-.043.524-.081a55.782,55.782,0,0,1,8.732-.576,20.9,20.9,0,0,1,2.362.169,7.7,7.7,0,0,1-2.17.47M365,438.7a22.823,22.823,0,0,1-4.154.442,41.27,41.27,0,0,1-5.411-.064l1.438-.26a15.944,15.944,0,0,1,2.678-.17c.6,0,1.213-.009,1.819-.058l.654-.051c.751-.057,1.527-.116,2.283-.208a4.837,4.837,0,0,1,1.573.074,4.834,4.834,0,0,1-.88.294" transform="translate(-297.401 -361.031)" fill="#9873ac"/>
    <path id="Caminho_168" data-name="Caminho 168" d="M59.758,56.964l-22.9-22.9a3.769,3.769,0,0,0-5.33,0L17.586,48.006a3.769,3.769,0,0,1-5.33,0L1.1,36.854a3.769,3.769,0,0,1,0-5.33L31.523,1.1a3.769,3.769,0,0,1,5.33,0l22.9,22.9a3.769,3.769,0,0,0,5.33,0L79.08,10.017a3.769,3.769,0,0,1,5.33,0L95.562,21.168a3.769,3.769,0,0,1,0,5.33L65.088,56.964a3.769,3.769,0,0,1-5.329,0" transform="translate(0 0)" fill="#9873ac"/>
  </g>
</svg>
