<svg id="Group_44" data-name="Group 44" xmlns="http://www.w3.org/2000/svg" xmlns:xlink="http://www.w3.org/1999/xlink" width="84.222" height="20.873" viewBox="0 0 84.222 20.873">
  <defs>
    <clipPath id="clip-path">
      <rect id="Rectangle_49" data-name="Rectangle 49" width="84.222" height="20.873" fill="#415264"/>
    </clipPath>
  </defs>
  <g id="Group_42" data-name="Group 42" clip-path="url(#clip-path)">
    <path id="Path_126" data-name="Path 126" d="M12.9,7.649a6.533,6.533,0,0,1,3.912,2.189,6.132,6.132,0,0,1,1.606,4.233,6.735,6.735,0,0,1-1.664,4.613,5.693,5.693,0,0,1-4.554,1.9H0V0H10.013a4.093,4.093,0,0,1,3.095,1.343,4.37,4.37,0,0,1,1.285,3.124A3.766,3.766,0,0,1,12.9,7.649M5.81,4.876V7.094H7.649c.993,0,1.489-.379,1.489-1.109s-.467-1.109-1.43-1.109Zm.029,10.831H8.758c2.452,0,3.387-.759,3.387-2.277,0-1.2-1.109-2.189-3.357-2.189H5.839Z" fill="#415264"/>
    <path id="Path_127" data-name="Path 127" d="M108.031,15.852h9.721v4.729H102.047V0h5.985Z" transform="translate(-78.809 0)" fill="#415264"/>
    <path id="Path_128" data-name="Path 128" d="M207.024,0V12.32a8.144,8.144,0,0,1-2.54,6.16c-1.664,1.606-4.029,2.394-7.094,2.394-3.036,0-5.4-.788-7.065-2.394a8.227,8.227,0,0,1-2.511-6.16V0h5.809V10.773c0,3.591,1.2,4.9,3.766,4.9,2.657,0,3.824-1.314,3.824-4.9V0Z" transform="translate(-145.047)" fill="#415264"/>
    <path id="Path_129" data-name="Path 129" d="M302.21,15.706h10.918v4.875H296.4V0h16.115V4.875H302.21V8.232h8.5v4.729h-8.5Z" transform="translate(-228.906 0)" fill="#415264"/>
  </g>
</svg>
