<svg xmlns="http://www.w3.org/2000/svg" xmlns:xlink="http://www.w3.org/1999/xlink" width="80.518" height="91.892" viewBox="0 0 80.518 91.892">
  <defs>
    <clipPath id="clip-path">
      <rect id="Retângulo_88" data-name="Retângulo 88" width="80.518" height="91.892" fill="#9873ac"/>
    </clipPath>
  </defs>
  <g id="Grupo_54" data-name="Grupo 54" clip-path="url(#clip-path)">
    <path id="Caminho_142" data-name="Caminho 142" d="M117.461,118.562a9.281,9.281,0,0,1,.417,1.112,3.1,3.1,0,0,1-1.821,3.586q-4.141,2.114-8.294,4.2-6.745,3.411-13.489,6.825a1.757,1.757,0,0,0-.532.413c-.653.768-1.234,1.606-1.94,2.32q-4.924,4.978-9.912,9.893a.767.767,0,0,0-.182.846q1.667,7.576,3.324,15.154a6.668,6.668,0,0,1,.15.873,2.63,2.63,0,0,1-5.105,1.076,7.792,7.792,0,0,1-.219-.858q-1.686-7.669-3.361-15.34a.838.838,0,0,0-.636-.732,11.094,11.094,0,0,1-4.652-4.121c-.214-.709-.894-1.058-1.98-1.285-4.71-.985-9.4-2.046-14.107-3.072a2.807,2.807,0,0,1-2.006-1.293,2.632,2.632,0,0,1,2.556-3.976,7.471,7.471,0,0,1,.81.145q7.237,1.586,14.47,3.187a.944.944,0,0,0,1.027-.326c2.272-2.328,4.575-4.626,6.872-6.929,1.4-1.406,2.772-2.848,4.238-4.184a6.288,6.288,0,0,0,1.394-1.9c3.548-7.042,7.143-14.061,10.646-21.125.956-1.929,2.594-3.032,4.945-1.88l.807.807a3.808,3.808,0,0,1-.115,3.893c-3.3,6.429-6.543,12.887-9.8,19.335-.1.2-.178.41-.225.518l2.207,2.207c.2-.1.369-.177.535-.262,6.411-3.242,12.833-6.464,19.225-9.743a3.909,3.909,0,0,1,3.949-.174l.807.807" transform="translate(-44.5 -85.016)" fill="#9873ac"/>
    <path id="Caminho_143" data-name="Caminho 143" d="M117.853,382.4a6.813,6.813,0,1,1-9.723.217,6.858,6.858,0,0,1,9.723-.217" transform="translate(-89.736 -321.196)" fill="#9873ac"/>
    <path id="Caminho_144" data-name="Caminho 144" d="M75.569,91.893H4.876c-2.6-.873-3.433-2.742-3.429-5.391q.071-38.656.039-77.312A2.221,2.221,0,0,0,.859,7.549a4.47,4.47,0,0,1-.8-2.014A9.278,9.278,0,0,1,.037,3.657C.037.978.978.028,3.629.028H76.815a2.985,2.985,0,0,1,.98.029,5.292,5.292,0,0,1,1.8.87c1.254,1.169,1.215,5.551-.054,6.7A1.733,1.733,0,0,0,78.962,9.1q.011,38.7.035,77.4c0,2.649-.83,4.518-3.429,5.391m.708-47.617c-.389.5-.61.771-.822,1.053-1.686,2.247-3.386,4.484-5.047,6.75a2.166,2.166,0,0,1-2.058.948,44.071,44.071,0,0,1-16.031-4.147c-6.208-2.772-11.911-6.46-17.8-9.809-5.067-2.881-10.181-5.659-15.932-6.992-.987-.229-1.412-.891-1.22-1.67.2-.821.911-1.206,1.929-.913,1.833.529,3.678,1.045,5.462,1.716,5.224,1.965,9.972,4.865,14.769,7.665,5.491,3.206,10.92,6.537,16.908,8.788a40.279,40.279,0,0,0,11.03,2.617,1.409,1.409,0,0,0,1.42-.64c2.161-2.937,4.3-5.892,6.574-8.741a4.274,4.274,0,0,0,.756-3.456c-1.386.1-2.722.215-4.06.292a67.448,67.448,0,0,1-22.679-2.663c-5.732-1.655-11.393-3.557-17.083-5.357-7.362-2.329-14.829-4-22.623-3.471-1.862.125-3.714.41-5.545.619v2.962c.293-.067.524-.112.75-.173a27.706,27.706,0,0,1,7.62-.97c1.022.014,1.594.466,1.618,1.276s-.513,1.317-1.524,1.4c-.6.046-1.2.026-1.793.058a23.677,23.677,0,0,0-6.727,1.328V33.7q0,26.6,0,53.19c0,1.884.434,2.313,2.332,2.313H73.952c1.892,0,2.325-.432,2.325-2.319q0-20.72,0-41.44V44.275M77.688,2.8H2.789V5.775H4c20.9,0,49.211,0,70.113,0a5.448,5.448,0,0,1,1.071.051,1.251,1.251,0,0,1,1.094,1.331,1.252,1.252,0,0,1-1.159,1.276,7.319,7.319,0,0,1-1.074.031H4.238V24.135l5.861-.686c0-2.485-.013-4.9,0-7.324a4.279,4.279,0,0,1,4.6-4.6q9.688-.018,19.377,0a4.232,4.232,0,0,1,4.6,4.491c.039,2.691.008,5.382.008,8.073a4.39,4.39,0,0,1-1.376,3.382c-.246.229-.526.423-.955.764,4.418,1.369,8.643,2.751,12.911,3.985A67.57,67.57,0,0,0,73.177,35c1.027-.076,2.049-.206,3.027-.306V8.465c-.968,0-1.865.02-2.76-.005A1.342,1.342,0,1,1,73.4,5.784c.566-.032,1.136-.009,1.7-.009h2.584ZM12.8,23.4c.537.03.954.031,1.365.079,3.019.349,6.064.561,9.049,1.1,3.544.643,7.016,1.652,10.687,1.338,1.6-.137,2.084-.488,2.09-2.1q.013-3.719,0-7.437c0-1.692-.493-2.171-2.2-2.172q-7.168,0-14.336,0c-1.613,0-3.226-.016-4.839.006-1.125.015-1.781.536-1.8,1.57-.049,2.5-.016,5.011-.016,7.61" transform="translate(0 0)" fill="#9873ac"/>
    <path id="Caminho_145" data-name="Caminho 145" d="M282.223,91.008c-3.2,0-6.395.008-9.592,0-2.982-.01-4.642-1.671-4.661-4.671q-.024-3.855,0-7.709c.02-2.974,1.723-4.679,4.675-4.683q9.592-.012,19.183,0c3,0,4.715,1.731,4.724,4.743q.011,3.81,0,7.619c-.01,3.013-1.7,4.7-4.738,4.7-3.2.007-6.394,0-9.591,0m.057-2.692q4.754,0,9.507,0c1.579,0,2.072-.506,2.075-2.109q.007-3.722,0-7.444c0-1.615-.527-2.128-2.171-2.129q-9.462,0-18.924,0c-1.581,0-2.1.511-2.1,2.09q-.014,3.767,0,7.534c.006,1.6.477,2.057,2.111,2.059q4.754.006,9.507,0" transform="translate(-226.209 -62.417)" fill="#9873ac"/>
  </g>
</svg>
