<svg id="Group_45" data-name="Group 45" xmlns="http://www.w3.org/2000/svg" xmlns:xlink="http://www.w3.org/1999/xlink" width="113.059" height="20.873" viewBox="0 0 113.059 20.873">
  <defs>
    <clipPath id="clip-path">
      <rect id="Rectangle_48" data-name="Rectangle 48" width="113.059" height="20.873" transform="translate(0 0)" fill="#f48580"/>
    </clipPath>
  </defs>
  <g id="Group_41" data-name="Group 41" transform="translate(0 0)" clip-path="url(#clip-path)">
    <path id="Path_121" data-name="Path 121" d="M14.683,13.3l4.52,3.685A10.953,10.953,0,0,1,10.8,20.873a10.561,10.561,0,0,1-7.63-3.052A9.913,9.913,0,0,1,0,10.451,9.913,9.913,0,0,1,3.167,3.08,10.587,10.587,0,0,1,10.8,0,10.979,10.979,0,0,1,19.2,3.915L14.683,7.6A4.4,4.4,0,0,0,10.8,5.3,4.493,4.493,0,0,0,7.428,6.679a5.214,5.214,0,0,0-1.353,3.772,5.239,5.239,0,0,0,1.353,3.743A4.5,4.5,0,0,0,10.8,15.6a4.4,4.4,0,0,0,3.887-2.3" transform="translate(0 0)" fill="#f48580"/>
    <path id="Path_122" data-name="Path 122" d="M119.436,3.18a9.912,9.912,0,0,1,3.167,7.37,9.912,9.912,0,0,1-3.167,7.37,11.207,11.207,0,0,1-15.374,0,9.912,9.912,0,0,1-3.167-7.37,9.912,9.912,0,0,1,3.167-7.37,11.207,11.207,0,0,1,15.374,0m-4.261,11.056a5.2,5.2,0,0,0,1.439-3.685,5.183,5.183,0,0,0-1.439-3.656,4.609,4.609,0,0,0-6.852,0,5.157,5.157,0,0,0-1.411,3.656,5.177,5.177,0,0,0,1.411,3.685,4.669,4.669,0,0,0,6.852,0" transform="translate(-78.237 -0.099)" fill="#f48580"/>
    <path id="Path_123" data-name="Path 123" d="M232.225,21.58l-3.138-4.319c-.029-.029-.086-.029-.173-.029h-2.5V21.58h-5.9V1.282h9.645c6.305,0,8.465,3.714,8.465,7.745,0,3.455-1.238,5.816-3.714,7.111l4.348,5.442ZM226.409,6.09v6.536h2.245c2.678,0,3.772-1.353,3.772-3.167,0-1.929-.979-3.369-3.282-3.369Z" transform="translate(-170.988 -0.994)" fill="#f48580"/>
    <path id="Path_124" data-name="Path 124" d="M331.19,21.58l-1.439-3.253h-7.572l-1.411,3.253h-6.162l9.991-20.3h2.764l10.019,20.3ZM325.978,9.66l-1.727,4h3.455Z" transform="translate(-243.955 -0.994)" fill="#f48580"/>
    <path id="Path_125" data-name="Path 125" d="M440.376,16.916h9.587V21.58H434.474V1.282h5.9Z" transform="translate(-336.904 -0.994)" fill="#f48580"/>
  </g>
</svg>
