<svg xmlns="http://www.w3.org/2000/svg" xmlns:xlink="http://www.w3.org/1999/xlink" width="69" height="69" viewBox="0 0 69 69">
  <defs>
    <clipPath id="clip-path">
      <rect id="Retângulo_130" data-name="Retângulo 130" width="69" height="69" transform="translate(0 -0.281)" fill="none"/>
    </clipPath>
  </defs>
  <g id="Grupo_52" data-name="Grupo 52" transform="translate(0 0.281)">
    <g id="Grupo_49" data-name="Grupo 49" transform="translate(0 0)">
      <g id="Grupo_48" data-name="Grupo 48" clip-path="url(#clip-path)">
        <path id="Caminho_219" data-name="Caminho 219" d="M178.22,150.942a27.278,27.278,0,1,0-27.278,27.278,27.278,27.278,0,0,0,27.278-27.278" transform="translate(-116.582 -116.582)" fill="#8098bc"/>
      </g>
    </g>
    <g id="Grupo_51" data-name="Grupo 51" transform="translate(0 0)">
      <g id="Grupo_50" data-name="Grupo 50" clip-path="url(#clip-path)">
        <path id="Caminho_220" data-name="Caminho 220" d="M325.7,307.995h-1.5v-1.589a.588.588,0,1,0-1.175,0v1.589h-4.88l3.053-3.053a.588.588,0,0,0-.832-.831l-3.883,3.884h-1.062l1.514-1.514a.588.588,0,0,0-.831-.831l-2.345,2.345h-.167l-1.05-1.05v-1.485l2.044-2.044h5.492a.588.588,0,0,0,0-1.175h-4.317l3.451-3.451,1.123,1.124a.588.588,0,0,0,.831-.831l-1.123-1.124L321.1,296.9a.588.588,0,0,0-.831-.831l-1.062,1.062L318.083,296a.588.588,0,0,0-.831.831l1.124,1.124-3.451,3.451v-4.317a.588.588,0,1,0-1.175,0v5.492l-2.044,2.044H310.22l-1.05-1.05v-.167l2.345-2.345a.588.588,0,0,0-.831-.831l-1.514,1.514v-1.062l3.884-3.884a.588.588,0,0,0-.831-.831l-3.053,3.053v-4.88h1.589a.588.588,0,1,0,0-1.175H309.17v-1.5a.588.588,0,0,0-1.175,0v1.5h-1.589a.588.588,0,0,0,0,1.175h1.589v4.88l-3.053-3.053a.588.588,0,0,0-.831.831l3.884,3.884v1.062l-1.514-1.514a.588.588,0,0,0-.831.831l2.345,2.345v.167l-1.05,1.05h-1.485l-2.044-2.044v-5.492a.588.588,0,1,0-1.175,0v4.317l-3.451-3.451,1.124-1.124a.588.588,0,0,0-.831-.831l-1.124,1.124-1.062-1.062a.588.588,0,0,0-.831.831l1.062,1.062L296,299.082a.588.588,0,0,0,.831.831l1.123-1.124,3.451,3.451h-4.317a.588.588,0,1,0,0,1.175h5.492l2.044,2.044v1.485l-1.05,1.05h-.167l-2.345-2.345a.588.588,0,0,0-.831.831l1.514,1.514h-1.062l-3.884-3.884a.588.588,0,0,0-.831.831l3.053,3.053h-4.88v-1.589a.588.588,0,0,0-1.175,0v1.589h-1.5a.588.588,0,0,0,0,1.175h1.5v1.589a.588.588,0,1,0,1.175,0V309.17h4.88l-3.053,3.053a.588.588,0,0,0,.831.831l3.884-3.884h1.062l-1.514,1.514a.588.588,0,1,0,.831.831l2.345-2.344h.167l1.05,1.05V311.7l-2.044,2.044h-5.492a.588.588,0,1,0,0,1.175h4.317l-3.451,3.451-1.123-1.124a.588.588,0,0,0-.831.831l1.123,1.124-1.062,1.062a.588.588,0,1,0,.831.831l1.062-1.062,1.124,1.123a.588.588,0,1,0,.831-.831l-1.124-1.123,3.451-3.451v4.317a.588.588,0,0,0,1.175,0V314.58l2.044-2.044h1.485l1.05,1.05v.167l-2.345,2.345a.588.588,0,0,0,.831.831l1.514-1.514v1.062l-3.884,3.883a.588.588,0,0,0,.831.831l3.053-3.052v4.88h-1.589a.588.588,0,0,0,0,1.175h1.589v1.5a.588.588,0,1,0,1.175,0v-1.5h1.589a.588.588,0,1,0,0-1.175H309.17v-4.88l3.053,3.052a.588.588,0,0,0,.831-.831l-3.884-3.883v-1.062l1.514,1.514a.588.588,0,0,0,.831-.831l-2.345-2.345v-.167l1.05-1.05H311.7l2.044,2.044v5.492a.588.588,0,0,0,1.175,0v-4.317l3.451,3.451-1.124,1.123a.588.588,0,1,0,.831.831l1.124-1.123,1.062,1.062a.588.588,0,0,0,.831-.831l-1.062-1.062,1.123-1.124a.588.588,0,0,0-.831-.831l-1.123,1.124-3.451-3.451h4.317a.588.588,0,0,0,0-1.175H314.58l-2.044-2.044V310.22l1.05-1.05h.167l2.345,2.344a.588.588,0,0,0,.831-.831l-1.514-1.514h1.062l3.883,3.884a.588.588,0,0,0,.832-.831l-3.053-3.053h4.88v1.589a.588.588,0,1,0,1.175,0V309.17h1.5a.588.588,0,1,0,0-1.175m-14.336,1.739v1.628h-1.628l-1.151,1.151-1.151-1.151H305.8v-1.628l-1.151-1.151,1.151-1.151V305.8h1.628l1.151-1.151,1.151,1.151h1.628v1.628l1.151,1.151Z" transform="translate(-274.222 -274.223)" fill="#fff"/>
      </g>
    </g>
  </g>
</svg>
