<svg xmlns="http://www.w3.org/2000/svg" width="40.344" height="27.91" viewBox="0 0 40.344 27.91">
  <g id="icone_FRETE" data-name="icone FRETE" transform="translate(0)">
    <path id="Caminho_78" data-name="Caminho 78" d="M237.306,57.163a2.072,2.072,0,1,0,2.073,2.073,2.072,2.072,0,0,0-2.073-2.073m0,2.763a.691.691,0,1,1,.691-.691.69.69,0,0,1-.691.691" transform="translate(-227.635 -36.161)" fill="#9873ac"/>
    <path id="Caminho_79" data-name="Caminho 79" d="M275.386,57.163a2.072,2.072,0,1,0,2.072,2.073,2.073,2.073,0,0,0-2.072-2.073m0,2.763a.691.691,0,1,1,.691-.691.69.69,0,0,1-.691.691" transform="translate(-244.713 -36.161)" fill="#9873ac"/>
    <path id="Caminho_80" data-name="Caminho 80" d="M261.273,30.252l-4.759-5.359a2.069,2.069,0,0,0-1.554-.7h-6.286V21.156a2.075,2.075,0,0,0-2.073-2.073H223.529a2.075,2.075,0,0,0-2.073,2.073V38.013a.691.691,0,0,0,.691.691h.691v2.073a2.075,2.075,0,0,0,2.073,2.072h1.437a4.829,4.829,0,0,0,9.561,0h11.441a4.829,4.829,0,0,0,9.561,0h2.818a2.074,2.074,0,0,0,2.073-2.072V31.63a2.07,2.07,0,0,0-.527-1.377m-4.123-2.563,3.091,3.481a.691.691,0,0,1,.164.392H255.45l-1.075-3.873Zm-34.313,9.632V21.156a.692.692,0,0,1,.691-.691H246.6a.691.691,0,0,1,.691.691V37.322Zm3.509,4.145H224.91a.692.692,0,0,1-.691-.691V38.7h3.53a4.821,4.821,0,0,0-1.4,2.763m4.78,4.145a3.454,3.454,0,1,1,3.454-3.454,3.454,3.454,0,0,1-3.454,3.454m16.221-4.145H235.907a4.821,4.821,0,0,0-1.4-2.763h14.247a4.825,4.825,0,0,0-1.4,2.763m4.781,4.145a3.454,3.454,0,1,1,3.454-3.454,3.454,3.454,0,0,1-3.454,3.454m8.289-12.434v7.6a.692.692,0,0,1-.691.691h-2.818a4.839,4.839,0,0,0-4.78-4.145h-3.454V25.579h6.286a.693.693,0,0,1,.52.231l.69.777H253.65a.552.552,0,0,0-.532.7l1.382,4.976a.551.551,0,0,0,.531.4h5.387Z" transform="translate(-221.456 -19.083)" fill="#9873ac"/>
    <path id="Caminho_81" data-name="Caminho 81" d="M242.333,37.355l-3.107-3.106a.511.511,0,0,0-.722,0l-1.891,1.89a.511.511,0,0,1-.723,0l-1.512-1.512a.511.511,0,0,1,0-.723l4.126-4.126a.511.511,0,0,1,.722,0l3.107,3.107a.511.511,0,0,0,.723,0l1.9-1.9a.511.511,0,0,1,.723,0L247.19,32.5a.511.511,0,0,1,0,.723l-4.133,4.132a.511.511,0,0,1-.723,0" transform="translate(-227.184 -23.812)" fill="#9873ac"/>
    <path id="Caminho_411" data-name="Caminho 411" d="M261.273,30.252l-4.759-5.359a2.069,2.069,0,0,0-1.554-.7h-6.286V21.156a2.075,2.075,0,0,0-2.073-2.073H223.529a2.075,2.075,0,0,0-2.073,2.073V38.013a.691.691,0,0,0,.691.691h.691v2.073a2.075,2.075,0,0,0,2.073,2.072h1.437a4.829,4.829,0,0,0,9.561,0h11.441a4.829,4.829,0,0,0,9.561,0h2.818a2.074,2.074,0,0,0,2.073-2.072V31.63a2.07,2.07,0,0,0-.527-1.377m-4.123-2.563,3.091,3.481a.691.691,0,0,1,.164.392H255.45l-1.075-3.873Zm-34.313,9.632V21.156a.692.692,0,0,1,.691-.691H246.6a.691.691,0,0,1,.691.691V37.322Zm3.509,4.145H224.91a.692.692,0,0,1-.691-.691V38.7h3.53a4.821,4.821,0,0,0-1.4,2.763m4.78,4.145a3.454,3.454,0,1,1,3.454-3.454,3.454,3.454,0,0,1-3.454,3.454m16.221-4.145H235.907a4.821,4.821,0,0,0-1.4-2.763h14.247a4.825,4.825,0,0,0-1.4,2.763m4.781,4.145a3.454,3.454,0,1,1,3.454-3.454,3.454,3.454,0,0,1-3.454,3.454m8.289-12.434v7.6a.692.692,0,0,1-.691.691h-2.818a4.839,4.839,0,0,0-4.78-4.145h-3.454V25.579h6.286a.693.693,0,0,1,.52.231l.69.777H253.65a.552.552,0,0,0-.532.7l1.382,4.976a.551.551,0,0,0,.531.4h5.387Z" transform="translate(-221.456 -19.083)" fill="#9873ac"/>
  </g>
</svg>
