<svg xmlns="http://www.w3.org/2000/svg" xmlns:xlink="http://www.w3.org/1999/xlink" width="47.061" height="53.288" viewBox="0 0 47.061 53.288">
  <defs>
    <clipPath id="clip-path">
      <rect id="Retângulo_126" data-name="Retângulo 126" width="47.061" height="53.288" fill="#9873ac"/>
    </clipPath>
  </defs>
  <g id="Grupo_114" data-name="Grupo 114" clip-path="url(#clip-path)">
    <path id="Caminho_408" data-name="Caminho 408" d="M42.4,21.4a2.327,2.327,0,0,0-1.766-1.181,4.563,4.563,0,0,0-1.749.11,7.3,7.3,0,0,0-1.07.337,10.049,10.049,0,0,0-1.606.783q-.166.091-.331.2c-.05-.05-.083-.094-.121-.127a1,1,0,0,0-.673-.314c-.088,0-.182-.006-.27-.006-.844,0-1.683-.006-2.527,0-.121,0-.248.006-.37.017a.975.975,0,0,0-.171.044,1.009,1.009,0,0,0-.458.314.943.943,0,0,1-.077.061c-.028-.017-.05-.022-.072-.039-.314-.177-.623-.359-.943-.524a8.1,8.1,0,0,0-1.622-.651,5.877,5.877,0,0,0-1.512-.237,2.665,2.665,0,0,0-1.848.585,1.8,1.8,0,0,0-.723,1.418v3.332a1.568,1.568,0,0,0,.215.8,2.37,2.37,0,0,0,1.8,1.164,3.722,3.722,0,0,0,1.236-.039c.188-.033.375-.061.557-.11.259-.066.524-.149.783-.232.16-.05.32-.116.474-.171.006.011.017.017.022.028-.033.039-.066.083-.1.116-.436.491-.872.982-1.308,1.468l-2.036,2.284c-.243.27-.491.541-.728.817a.345.345,0,0,0-.072.392.349.349,0,0,0,.359.221c.237-.017.474-.028.712-.039l1.793-.1a.16.16,0,0,1,.166.1c.072.154.154.3.237.458.182.353.37.712.557,1.07a.374.374,0,0,0,.32.237.388.388,0,0,0,.386-.254c.375-.712.756-1.412,1.131-2.119.469-.877.932-1.755,1.4-2.632.359-.673.717-1.346,1.076-2.014.022-.033.044-.066.077-.11.028.044.044.066.055.088.342.634.679,1.269,1.015,1.9.287.535.568,1.07.855,1.606.4.756.811,1.512,1.214,2.268.188.348.37.7.557,1.037a.361.361,0,0,0,.248.215.374.374,0,0,0,.447-.232c.1-.188.2-.381.3-.574.154-.3.309-.607.469-.916.039-.072.083-.143.193-.132.27.022.541.039.806.05.568.028,1.131.061,1.7.083a.367.367,0,0,0,.188-.033.353.353,0,0,0,.088-.574c-.221-.259-.452-.513-.684-.772-1.026-1.148-2.052-2.3-3.079-3.448-.138-.154-.27-.309-.4-.458a.375.375,0,0,1,.193.022c.254.088.513.182.772.265a5.841,5.841,0,0,0,1.539.259,2.716,2.716,0,0,0,1.683-.452,1.872,1.872,0,0,0,.9-1.65v-.679c0-.828,0-1.65.006-2.477a1.708,1.708,0,0,0-.21-.855m-17.192.883a1.2,1.2,0,0,1,.607-1.065,1.932,1.932,0,0,1,1.043-.3,4.935,4.935,0,0,1,1.418.188A9.269,9.269,0,0,1,30.9,22.31a.243.243,0,0,1,.127.232c-.006.7-.006,1.39-.006,2.086v.166c-.441-.221-.855-.447-1.286-.646a8.714,8.714,0,0,0-1.815-.579,4.274,4.274,0,0,0-1.4-.066,2.585,2.585,0,0,0-1.186.469.508.508,0,0,1-.11.055c-.006-.066-.011-.11-.011-.154,0-.53.006-1.059,0-1.589m3.7,4.121a5.332,5.332,0,0,1-2.212.375,1.725,1.725,0,0,1-1.247-.623,1.028,1.028,0,0,1,.017-1.335,1.7,1.7,0,0,1,.982-.568,3.2,3.2,0,0,1,1.076-.011,7.128,7.128,0,0,1,1.876.552,10.631,10.631,0,0,1,1.241.651.438.438,0,0,1,.083.061c-.237.132-.447.259-.662.375a8.035,8.035,0,0,1-1.153.524m3.961.149q-1.663,3.128-3.338,6.257h-.044c-.077-.143-.154-.292-.232-.436-.132-.254-.265-.5-.392-.756a.4.4,0,0,0-.4-.237c-.508.033-1.021.061-1.528.088-.127.006-.248,0-.4,0,1.606-1.8,3.195-3.575,4.784-5.357.044.028.083.044.11.066a1.15,1.15,0,0,0,.761.248h.7c.011.017.017.017.017.022a.02.02,0,0,1,.006.017.613.613,0,0,1-.039.088m5.291,2.229c.4.447.794.888,1.192,1.335s.789.888,1.208,1.352c-.077.006-.121.011-.171.011L39.028,31.4c-.138-.006-.281-.006-.419-.017a.376.376,0,0,0-.364.221c-.188.353-.37.712-.557,1.07-.028.05-.061.094-.1.171-1.148-2.152-2.279-4.265-3.426-6.417.259,0,.474-.006.69,0a1.224,1.224,0,0,0,.844-.259c.022-.017.044-.028.088-.055.4.436.794.883,1.192,1.33s.8.894,1.2,1.341m3.5-2.654a1.634,1.634,0,0,1-.966.6,2.972,2.972,0,0,1-1.126.022,6.125,6.125,0,0,1-1.324-.331c-.287-.1-.568-.226-.844-.359-.3-.143-.585-.309-.877-.469a1.1,1.1,0,0,1-.149-.1c.2-.116.381-.221.563-.32a7.5,7.5,0,0,1,1.3-.6,5.273,5.273,0,0,1,2.08-.364,1.757,1.757,0,0,1,1.3.6,1.061,1.061,0,0,1,.265.612.978.978,0,0,1-.221.706m.226-2.279c0,.055,0,.1-.006.182-.055-.033-.094-.044-.127-.066a2.676,2.676,0,0,0-1.639-.486,6.1,6.1,0,0,0-1.23.149,8.365,8.365,0,0,0-1.854.673c-.314.154-.618.326-.927.486a22.955,22.955,0,0,1-.022-2.406c.232-.143.474-.309.728-.441.337-.182.684-.359,1.037-.508a6.814,6.814,0,0,1,1.346-.425,4.681,4.681,0,0,1,1.208-.088,1.806,1.806,0,0,1,1.092.463,1.2,1.2,0,0,1,.4.916c-.006.519,0,1.037-.006,1.55" transform="translate(-10.98 -9.044)" fill="#9873ac"/>
    <path id="Caminho_409" data-name="Caminho 409" d="M47.054,49.949,44.482,11.714a3.419,3.419,0,0,0-3.4-3.181h-5.4a8.62,8.62,0,0,0-1.917-5.78C32.17.926,29.718,0,26.473,0a14.3,14.3,0,0,0-1.9.13A14.51,14.51,0,0,0,22.663,0C19.456,0,17,.925,15.371,2.749a8.983,8.983,0,0,0-2.092,5.784H9.827A3.121,3.121,0,0,0,6.8,11L.072,49.507a3.118,3.118,0,0,0,3.047,3.782H43.933a3.129,3.129,0,0,0,3.122-3.34M42.831,11.825,45.4,50.06c0,.009,0,.017,0,.026l-3.5-4.158V10.4a1.753,1.753,0,0,1,.924,1.421m-2.579-1.638V45.912l-3.715,4.142L38.252,30.91l1.857-20.722ZM32.5,3.83a7.04,7.04,0,0,1,1.517,4.7H31.87a8.617,8.617,0,0,0-1.917-5.78,6.971,6.971,0,0,0-.87-.823A6.256,6.256,0,0,1,32.5,3.83m-13.758,4.7a7.379,7.379,0,0,1,1.678-4.691,6.765,6.765,0,0,1,4.155-2.05A6.588,6.588,0,0,1,28.7,3.83a7.046,7.046,0,0,1,1.517,4.7ZM16.615,3.842a6.444,6.444,0,0,1,3.443-1.908,7.3,7.3,0,0,0-.877.815,8.988,8.988,0,0,0-2.093,5.784H14.937a7.372,7.372,0,0,1,1.678-4.691M4.532,34.184l.439-.439a.291.291,0,0,1,.2-.086.317.317,0,0,1,.2.086l5.094,5.089a1.385,1.385,0,0,0,1.97,0l3.108-3.108a.291.291,0,0,1,.409,0l2.483,2.483a.292.292,0,0,1,0,.406L11.661,45.4a.291.291,0,0,1-.406,0l-5.1-5.1a1.382,1.382,0,0,0-.98-.4,1.4,1.4,0,0,0-.987.4l-.879.879ZM3.119,51.633a1.455,1.455,0,0,1-1.139-.545A1.479,1.479,0,0,1,1.7,49.826l1.158-6.631,2.114-2.114a.292.292,0,0,1,.409,0l5.1,5.1a1.391,1.391,0,0,0,1.966,0l6.781-6.781a1.395,1.395,0,0,0,0-1.966l-2.483-2.483a1.4,1.4,0,0,0-1.966,0L11.657,38.06a.278.278,0,0,1-.2.084.285.285,0,0,1-.2-.087L6.16,32.968a1.367,1.367,0,0,0-.978-.413H5.176a1.376,1.376,0,0,0-.479.089L8.42,11.322a1.448,1.448,0,0,1,1.407-1.134H38.447L36.59,30.91,34.733,51.633Zm34.225,0,3.715-4.142,3.4,4.042a1.471,1.471,0,0,1-.524.1Z" transform="translate(0 0)" fill="#9873ac"/>
  </g>
</svg>
