<svg id="icone_ENTREGA" data-name="icone ENTREGA" xmlns="http://www.w3.org/2000/svg" width="53.5" height="58.936" viewBox="0 0 53.5 58.936">
  <path id="Caminho_69" data-name="Caminho 69" d="M144.844,57.285a22.578,22.578,0,1,1,22.578-22.578,22.6,22.6,0,0,1-22.578,22.578m0-42.78a20.2,20.2,0,1,0,20.2,20.2,20.224,20.224,0,0,0-20.2-20.2" transform="translate(-118.094 -2.52)" fill="#9873ac"/>
  <path id="Caminho_70" data-name="Caminho 70" d="M143.75,60.362A26.749,26.749,0,1,1,170.5,33.613a26.78,26.78,0,0,1-26.75,26.749m0-51.122a24.373,24.373,0,1,0,24.373,24.373A24.4,24.4,0,0,0,143.75,9.24" transform="translate(-117 -1.426)" fill="#9873ac"/>
  <path id="Caminho_71" data-name="Caminho 71" d="M156.94,38.653h-6.486a1.188,1.188,0,0,1-1.188-1.188V26.59a1.188,1.188,0,1,1,2.377,0v9.686h5.3a1.188,1.188,0,1,1,0,2.377" transform="translate(-123.704 -5.278)" fill="#9873ac"/>
  <path id="Caminho_72" data-name="Caminho 72" d="M128.961,13.992l-3.179-3.179a2.341,2.341,0,0,0-3.309,0l-.871.872a2.34,2.34,0,0,0,0,3.308l3.049,3.049" transform="translate(-117.814 -2.104)" fill="#9873ac"/>
  <path id="Caminho_73" data-name="Caminho 73" d="M153.126,6.826l-.018-4.5A2.339,2.339,0,0,0,150.758,0l-1.233,0A2.339,2.339,0,0,0,147.2,2.354l.017,4.312" transform="translate(-123.274 0)" fill="#9873ac"/>
  <path id="Caminho_74" data-name="Caminho 74" d="M150.454,67.253a1.188,1.188,0,0,1-1.188-1.188V61.288a1.188,1.188,0,1,1,2.377,0v4.776a1.188,1.188,0,0,1-1.188,1.188" transform="translate(-123.704 -12.488)" fill="#9873ac"/>
  <path id="Caminho_75" data-name="Caminho 75" d="M128.215,41.506h-4.777a1.188,1.188,0,1,1,0-2.377h4.777a1.188,1.188,0,1,1,0,2.377" transform="translate(-118.091 -8.13)" fill="#9873ac"/>
  <path id="Caminho_76" data-name="Caminho 76" d="M176.215,41.506h-4.777a1.188,1.188,0,1,1,0-2.377h4.777a1.188,1.188,0,1,1,0,2.377" transform="translate(-128.065 -8.13)" fill="#9873ac"/>
  <path id="Caminho_77" data-name="Caminho 77" d="M150.454,19.253a1.188,1.188,0,0,1-1.188-1.188V13.288a1.188,1.188,0,1,1,2.377,0v4.776a1.188,1.188,0,0,1-1.188,1.188" transform="translate(-123.704 -2.514)" fill="#9873ac"/>
</svg>
