<svg xmlns="http://www.w3.org/2000/svg" width="41.648" height="36.604" viewBox="0 0 41.648 36.604">
  <path id="Caminho_68" data-name="Caminho 68" d="M365.641,16.864h-6.1V15.643a1.22,1.22,0,0,0-2.44,0v1.221h-6.182V15.643a1.22,1.22,0,0,0-2.44,0v1.221h-6.1V15.643a1.22,1.22,0,1,0-2.44,0v1.221h-6.182a1.22,1.22,0,0,0-1.22,1.22V25.4c0,8.992-3.737,15.91-6.882,18.585a1.221,1.221,0,0,0,.781,2.158h6.1v3.66a1.22,1.22,0,0,0,1.22,1.22h31.887a1.22,1.22,0,0,0,1.22-1.22V18.084a1.22,1.22,0,0,0-1.22-1.22m-1.22,2.443h-4.881v0h4.881Zm-7.321,0v1.22a1.219,1.219,0,0,0,2.244.661,1.219,1.219,0,0,1-2.247-.658v-1.22h-6.179v0Zm-15.943,2.44a1.219,1.219,0,0,0,1.22-1.22V19.3h6.1v1.22a1.22,1.22,0,0,0,2.415.247,1.22,1.22,0,0,1-2.415-.244v-1.22h-6.1v1.22a1.22,1.22,0,0,1-2.415.244,1.22,1.22,0,0,0,1.195.973m-6.182-2.44h4.962v0h-4.958v4.878h0Zm-5.767,24.4a29.36,29.36,0,0,0,5.745-17.083H364.4c-.275,7.74-3.246,13.83-6.558,17.083Zm35.212,4.881H334.976v-2.44h23.345a1.224,1.224,0,0,0,.781-.283,22.508,22.508,0,0,0,5.32-7.856Z" transform="translate(-325.214 -14.423)" fill="#9873ac"/>
</svg>
