<svg xmlns="http://www.w3.org/2000/svg" xmlns:xlink="http://www.w3.org/1999/xlink" width="62.398" height="62.398" viewBox="0 0 62.398 62.398">
  <defs>
    <clipPath id="clip-path">
      <rect id="Retângulo_555" data-name="Retângulo 555" width="62.398" height="62.398" fill="none"/>
    </clipPath>
  </defs>
  <g id="Grupo_1120" data-name="Grupo 1120" clip-path="url(#clip-path)">
    <path id="Caminho_987" data-name="Caminho 987" d="M62.4,31.2A31.2,31.2,0,1,0,31.2,62.4,31.2,31.2,0,0,0,62.4,31.2" fill="#ccc6d2"/>
    <path id="Caminho_988" data-name="Caminho 988" d="M317.842,238.143c.387.381.726.713,1.062,1.048a.8.8,0,0,0,1.2.115.791.791,0,0,0-.064-1.2q-1.157-1.23-2.329-2.447a.808.808,0,0,0-1.35,0q-1.153,1.2-2.293,2.421c-.417.443-.448.9-.1,1.237s.808.279,1.228-.146c.323-.327.655-.646,1.028-1.012.008.192.02.331.02.469q0,2.37,0,4.74c0,.6.29.972.763.986s.8-.373.8-.984q0-2.37,0-4.74c0-.139.013-.278.023-.479m-9.562.2.113.037v.647q0,2.195,0,4.39a2.735,2.735,0,0,0,.018.438.737.737,0,0,0,.715.655.753.753,0,0,0,.8-.606,2.282,2.282,0,0,0,.035-.479q0-2.3,0-4.609v-.585l.6.632c.172.18.338.365.517.538a.777.777,0,0,0,1.167.066.816.816,0,0,0-.056-1.175q-1.143-1.214-2.3-2.418c-.527-.548-.927-.548-1.443-.006q-1.135,1.192-2.263,2.39a.811.811,0,0,0-.1,1.2c.368.364.8.331,1.226-.1.324-.332.639-.673.959-1.01m17.412-.327c.4.381.756.707,1.1,1.038a.789.789,0,1,0,1.13-1.091q-1.171-1.248-2.355-2.483a.813.813,0,0,0-1.355.006q-1.151,1.206-2.29,2.423a.817.817,0,0,0-.081,1.234c.359.335.8.276,1.225-.156.32-.326.646-.646,1.048-1.048,0,.261,0,.417,0,.572q0,2.326,0,4.652c0,.639.287,1.011.772,1.013.5,0,.8-.378.8-1.04q0-1.777,0-3.555v-1.567" transform="translate(-285.838 -219.719)" fill="#fff"/>
    <path id="Caminho_989" data-name="Caminho 989" d="M429.928,240.6c-.01.2-.023.341-.023.479q0,2.37,0,4.74c0,.611-.32,1-.8.984s-.762-.385-.763-.986q0-2.37,0-4.74c0-.139-.011-.277-.02-.469-.373.367-.7.685-1.028,1.012-.42.426-.88.484-1.228.146s-.32-.794.1-1.237q1.142-1.214,2.293-2.421a.808.808,0,0,1,1.35,0q1.172,1.216,2.33,2.447a.791.791,0,0,1,.064,1.2.8.8,0,0,1-1.2-.115c-.336-.335-.675-.666-1.062-1.048" transform="translate(-397.924 -222.177)" fill="#fff"/>
    <path id="Caminho_990" data-name="Caminho 990" d="M308.28,243.2c-.319.337-.634.678-.959,1.01-.424.435-.858.467-1.226.1a.811.811,0,0,1,.1-1.2q1.129-1.2,2.263-2.39c.516-.541.916-.542,1.443.006q1.155,1.2,2.3,2.418a.816.816,0,0,1,.056,1.175.777.777,0,0,1-1.167-.066c-.179-.173-.345-.358-.517-.538l-.6-.632v.585q0,2.3,0,4.609a2.275,2.275,0,0,1-.035.479.753.753,0,0,1-.8.606.737.737,0,0,1-.715-.655,2.731,2.731,0,0,1-.018-.438q0-2.195,0-4.39v-.647l-.113-.037" transform="translate(-285.839 -224.581)" fill="#fff"/>
    <path id="Caminho_991" data-name="Caminho 991" d="M550.042,238.016v1.567q0,1.777,0,3.555c0,.661-.3,1.042-.8,1.04-.486,0-.771-.374-.772-1.013q0-2.326,0-4.652c0-.156,0-.311,0-.572-.4.4-.729.722-1.048,1.048-.423.432-.866.491-1.225.156a.817.817,0,0,1,.081-1.234q1.142-1.215,2.29-2.423a.813.813,0,0,1,1.356-.006q1.186,1.233,2.355,2.483a.789.789,0,1,1-1.13,1.091c-.346-.331-.7-.657-1.1-1.038" transform="translate(-510.188 -219.719)" fill="#fff"/>
    <path id="Caminho_992" data-name="Caminho 992" d="M253.98,460.251c-2.669,0-5.339.038-8.007-.011a6.3,6.3,0,0,1-5.581-3.223,6.51,6.51,0,0,1,4.975-9.818.631.631,0,0,0,.614-.475,6.964,6.964,0,0,1,11.253-2.624.545.545,0,0,0,.745.105,8.153,8.153,0,0,1,9.215.836,8,8,0,0,1,3.005,8.7,8.621,8.621,0,0,1-8.367,6.5c-2.617.016-5.235.007-7.853.007m-6.564-11c-.328-.026-.6-.042-.871-.07a4.54,4.54,0,1,0-.613,9.047q8.06.043,16.12,0a6.441,6.441,0,0,0,6.15-4.657,6.518,6.518,0,0,0-10.255-6.992c-.252.193-.509.381-.759.567-2.132-2.566-3.6-3.3-5.774-2.775-2.5.606-3.683,2.365-4,4.883" transform="translate(-223.775 -413.268)" fill="#fff"/>
  </g>
</svg>
