<svg xmlns="http://www.w3.org/2000/svg" xmlns:xlink="http://www.w3.org/1999/xlink" width="223.346" height="65.557" viewBox="0 0 223.346 65.557">
  <defs>
    <clipPath id="clip-path">
      <rect id="Retângulo_92" data-name="Retângulo 92" width="223.346" height="65.557" fill="#9873ac"/>
    </clipPath>
  </defs>
  <g id="Grupo_66" data-name="Grupo 66" clip-path="url(#clip-path)">
    <path id="Caminho_155" data-name="Caminho 155" d="M207.5,30.511a6.456,6.456,0,1,1-8.343,3.59,6.431,6.431,0,0,1,8.343-3.59" transform="translate(-146.819 -22.208)" fill="#9873ac"/>
    <path id="Caminho_156" data-name="Caminho 156" d="M266.211,93c-.369-.81-.808-1.589-1.225-2.377-3.8-7.188-2.307-4.141-6.115-11.327-.115-.218-.234-.434-.351-.651a4.127,4.127,0,0,0-2.864-3.225,4.223,4.223,0,0,0-5.282,2.793c-.3.837-.535,1.7-.789,2.555-.316,1.067-.569,1.925-.776,2.636.015.076.031.152.046.228l-.148.124c-.106.364-.2.685-.281.973a6.438,6.438,0,0,0,4.468,1.2c1.854-.087,3.722.009,5.528.1q.561.029,1.121.056a3.911,3.911,0,0,1,3.63,2.912h0a3.864,3.864,0,0,1-1.584,4.322,4.608,4.608,0,0,1-2.376.727c-.687-.005-1.353-.012-2-.021q.725,1.351,1.462,2.732A4.213,4.213,0,1,0,266.211,93" transform="translate(-183.585 -55.585)" fill="#9873ac"/>
    <path id="Caminho_157" data-name="Caminho 157" d="M221.513,96.2a2.861,2.861,0,0,0-2.657-2.136c-2.182-.1-4.374-.259-6.55-.157a7.294,7.294,0,0,1-5.863-2.025,24.706,24.706,0,0,0-2.505-1.915c-.171-.13-.322-.287-.482-.432l.1-.2,3.617,1.419a11.992,11.992,0,0,0-.991-3.2,5.047,5.047,0,0,0-4.748-2.971,13.3,13.3,0,0,0-3.613.772c-3.683,1.141-5.169,4.053-4,7.714q2.5,7.8,5.014,15.588a7.6,7.6,0,0,0,.79,1.768,6.458,6.458,0,0,0,11.129-.545,25.646,25.646,0,0,0,1.592-4.57c.3-.913.548-1.841.837-2.826a20.522,20.522,0,0,0,.909-2.115c-2.166-.044-4.15-.109-6.059-.2a4.763,4.763,0,0,1-2.413-.913l0,0-.237.8c-.09.3-.175.606-.262.909-.213.041-.4.086-.561.133-1.647-2.211-3.246-4.456-4.865-6.688l.151-.128c2.022,1.522,4.018,3.082,6.084,4.543a4.29,4.29,0,0,0,2.132.816c3.5.162,7.01.232,10.516.259a3.584,3.584,0,0,0,1.808-.567,2.819,2.819,0,0,0,1.122-3.137" transform="translate(-142.949 -62.508)" fill="#9873ac"/>
    <path id="Caminho_158" data-name="Caminho 158" d="M567.5,4.1a6.456,6.456,0,1,1-8.343,3.59A6.431,6.431,0,0,1,567.5,4.1" transform="translate(-412.857 -2.69)" fill="#9873ac"/>
    <path id="Caminho_159" data-name="Caminho 159" d="M122.6,165.343c-1.695,3.632-4.9,5.11-8.552,5.712a12.556,12.556,0,0,1-10.817-3.323c-2.625-2.352-4.842-2.335-7.511.007-5.14,4.509-12.7,10.76-17.811,6.232-2.521-2.233-4.9,2.465-7.448,4.7a13.376,13.376,0,0,1-17.9-.045c-2.466-2.163-4.917-6.855-7.361-4.682-5.276,4.69-12.491-1.54-17.835-6.18-2.4-2.087-4.677-2.028-7.123.185a13.7,13.7,0,0,1-18.6-.009c-1.909-1.751-2.17-4.139-.652-5.964s3.994-1.964,6.066-.314c2.712,2.159,5.406,2.1,7.977-.19a13.219,13.219,0,0,1,17.67-.063c2.438,2.121,4.7,8.164,7.126,6.009,5.345-4.755,12.7.119,18.055,4.834q3.67,3.231,7.362-.042c5.172-4.572,12.71-9.268,17.9-4.694,2.469,2.175,4.892-4.083,7.36-6.243,5.482-4.8,12.491-4.783,18,.046,2.377,2.084,4.645,2.164,6.974.246,2.616-2.155,5.495-1.481,6.905,1.612a1.188,1.188,0,0,0,.22.253Z" transform="translate(0 -116.526)" fill="#9873ac"/>
    <path id="Caminho_160" data-name="Caminho 160" d="M529.255,39.585a7.72,7.72,0,0,0-7.647-5.959c-9.519-.005-31.568,0-41.087,0h-.684c.136-.23.211-.373.3-.5,1.068-1.535,2.132-3.072,3.208-4.6a50.185,50.185,0,0,0,4.494-7.389A19.236,19.236,0,0,0,489.736,9a10.509,10.509,0,0,0-3.722-6.687C482.4-.469,478.453-.63,474.384,1.228A5.108,5.108,0,0,0,471.22,4.6a9.269,9.269,0,0,1-1.485,3c-2.5,3.946-2.156,8.034-.431,12.142a1.406,1.406,0,0,0,1.613.762,1.6,1.6,0,0,0,1.2-1.287,10.614,10.614,0,0,1,.7-2.185,9.3,9.3,0,0,1,3.7-3.912,7.035,7.035,0,0,1,1.819-.7c.757-.188,1.1.065,1.271.838a5.6,5.6,0,0,1-.371,3.37,20.051,20.051,0,0,1-2.889,4.612c-1.72,2.258-3.516,4.463-5.15,6.778a25.332,25.332,0,0,0-4.249,9.284c-.193.9-.308,1.806-.459,2.709v2.169c.084.365.154.733.251,1.1a7.737,7.737,0,0,0,7.7,5.773c9.947,0,32.422,0,42.369,0,1.623,0,3.249.016,4.876,0a7.715,7.715,0,0,0,7.569-9.454M471.087,14.093l-.149-.039c.06-.668.081-1.342.188-2a7.328,7.328,0,0,1,1.657-3.557.438.438,0,0,1,.587-.154,2.807,2.807,0,0,1,1.976,1.965,13.588,13.588,0,0,0-4.26,3.787m2.649,15.37c1.712-2.263,3.5-4.468,5.231-6.716a18.517,18.517,0,0,0,3.419-6.094,8.09,8.09,0,0,0,.159-4.085,3.859,3.859,0,0,0-3.965-3.205h-.358A6,6,0,0,0,474.081,5.4,3.234,3.234,0,0,1,475.5,4.028a7.447,7.447,0,0,1,11.09,4.643A15.542,15.542,0,0,1,485.563,18.9a46.015,46.015,0,0,1-4.782,8.068c-1.464,2.114-2.868,4.27-4.32,6.395a.816.816,0,0,1-.556.258c-1.237.11-2.48.164-3.714.295a7.022,7.022,0,0,0-1.3.42,23.381,23.381,0,0,1,2.848-4.868m48.181,16.542c-3.751.029-4.6.023-15.958.018h-.076c-4.74.013-9.485-.008-14.225-.008v.008q-8.644,0-17.286,0a4.689,4.689,0,0,1-.391-9.37c.723-.021,1.446-.01,2.166-.01,10.952,0,34.429,0,45.378,0a4.685,4.685,0,1,1,.392,9.362" transform="translate(-344.735 0.001)" fill="#9873ac"/>
    <path id="Caminho_161" data-name="Caminho 161" d="M580.391,72.924a3.585,3.585,0,0,1-1.808.567c-3.506-.027-7.014-.1-10.516-.259a4.292,4.292,0,0,1-2.132-.816c-2.066-1.46-4.062-3.021-6.084-4.543L559.7,68c1.618,2.232,5.849,5.1,5.924,4.845l0,0a4.765,4.765,0,0,0,2.414.913c1.7.079,1.86,4.051,1.609,5.5h-11.77q-2.035-6.3-4.052-12.6c-1.173-3.662.313-6.574,4-7.715a13.315,13.315,0,0,1,3.613-.772,5.047,5.047,0,0,1,4.748,2.971,11.989,11.989,0,0,1,.991,3.2l-3.617-1.419-.1.2c.16.145.311.3.482.432a24.7,24.7,0,0,1,2.505,1.914,7.294,7.294,0,0,0,5.863,2.025c2.176-.1,4.368.055,6.55.157a2.862,2.862,0,0,1,2.658,2.136,2.819,2.819,0,0,1-1.122,3.137" transform="translate(-408.987 -42.989)" fill="#9873ac"/>
    <path id="Caminho_162" data-name="Caminho 162" d="M514.125,22.511a1.554,1.554,0,0,1-1.506-1.564,1.506,1.506,0,1,1,1.506,1.564" transform="translate(-378.824 -14.424)" fill="#9873ac"/>
    <path id="Caminho_163" data-name="Caminho 163" d="M508.378,163.174c-1.41-3.093-4.29-3.767-6.906-1.612-2.329,1.918-4.6,1.839-6.973-.246-5.508-4.83-12.516-4.848-18-.046-2.467,2.161-4.89,2.154-7.359-.021a14,14,0,0,0-2.471-1.742,4.572,4.572,0,0,1-4.236,3.026c-3.426.026-4.434.024-13.24.02a4.329,4.329,0,0,1-3.342,0c-4.557.01-9.119-.008-13.676-.008v.008l-8.11,0a4.109,4.109,0,0,1-3.662,0q-2.757,0-5.514,0a4.675,4.675,0,0,1-4.763-3.691,4.515,4.515,0,0,1-.111-.8,13.277,13.277,0,0,0-8.992,3.414c-2.57,2.285-5.264,2.349-7.976.19-2.073-1.65-4.538-1.523-6.066.314s-1.257,4.213.652,5.964a13.7,13.7,0,0,0,18.6.009c2.447-2.213,4.72-2.271,7.123-.185a13.114,13.114,0,0,0,17.835-.085q3.666-3.259,7.361-.014a13.376,13.376,0,0,0,17.9.045c2.552-2.233,4.927-2.233,7.448,0a13.4,13.4,0,0,0,17.811.032c2.669-2.341,4.886-2.358,7.511-.007a12.555,12.555,0,0,0,10.817,3.323c3.655-.6,6.857-2.079,8.552-5.711v-1.916a1.189,1.189,0,0,1-.22-.253" transform="translate(-285.252 -116.526)" fill="#9873ac"/>
  </g>
</svg>
