<svg xmlns="http://www.w3.org/2000/svg" xmlns:xlink="http://www.w3.org/1999/xlink" width="77.728" height="20.359" viewBox="0 0 77.728 20.359"><defs><clipPath id="a"><rect width="77.728" height="20.359" fill="none"/></clipPath><clipPath id="b"><rect width="77.727" height="20.358" fill="none"/></clipPath><clipPath id="c"><rect width="1.747" height="10.073" fill="none"/></clipPath><clipPath id="d"><rect width="8.668" height="10.073" fill="none"/></clipPath><clipPath id="e"><rect width="8.8" height="10.267" fill="none"/></clipPath><clipPath id="f"><rect width="7.706" height="10.391" fill="none"/></clipPath><clipPath id="h"><rect width="10.337" height="10.339" fill="none"/></clipPath></defs><g clip-path="url(#a)"><g transform="translate(0 0)"><g clip-path="url(#b)"><g transform="translate(13.359 0)" opacity="0.99"><g transform="translate(0 0)"><g clip-path="url(#c)"><path d="M9.569,0H8.643a.41.41,0,0,0-.411.411V9.663a.41.41,0,0,0,.411.409h.927a.41.41,0,0,0,.411-.409V.411A.41.41,0,0,0,9.569,0" transform="translate(-8.233 0)" fill="#455366"/></g></g></g><g transform="translate(0 5.054)" opacity="0.99"><g clip-path="url(#d)"><path d="M8.258,3.115H.855a.408.408,0,0,0-.409.409v.831a.409.409,0,0,0,.409.411h4.9L.078,12.536a.41.41,0,0,0,.331.651H8.1a.41.41,0,0,0,.411-.409v-.831a.41.41,0,0,0-.411-.409H2.921L8.589,3.766a.41.41,0,0,0-.331-.651" transform="translate(0 -3.115)" fill="#455366"/></g></g><g transform="translate(57.916 0)" opacity="0.99"><g transform="translate(0 0)"><g clip-path="url(#e)"><path d="M44.065.021c-.484,0-1.31-.18-1.335.5-.021.557,0,1.116,0,1.673,0,1.225.018,2.454,0,3.679a2.633,2.633,0,0,1-5.209.61,10.884,10.884,0,0,1-.041-1.509V.683a.917.917,0,0,0-.055-.459c-.182-.312-.751-.2-1.05-.2-.328,0-.6.047-.639.435a4.4,4.4,0,0,0,0,.485V3.1a17.883,17.883,0,0,0,.151,4.136,3.83,3.83,0,0,0,2.624,2.8,5.1,5.1,0,0,0,4.156-.487,4.291,4.291,0,0,0,1.808-3.625c0-.411,0-.823,0-1.235,0-1.376.039-2.759,0-4.136C44.468.3,44.387.021,44.065.021" transform="translate(-35.691 0)" fill="#455366"/></g></g></g><g transform="translate(20.406 4.881)" opacity="0.99"><g clip-path="url(#f)"><path d="M18.641,7.866a15.578,15.578,0,0,0-2.851-.808c-.647-.157-1.658-.448-1.431-1.331.17-.665.98-.909,1.574-.98a5.222,5.222,0,0,1,2.505.355.873.873,0,0,0,.8.036,1.939,1.939,0,0,0,.678-.99c.032-.615-1.525-.889-1.97-.982a5.133,5.133,0,0,0-4.54.883A2.62,2.62,0,0,0,13.553,8a6.1,6.1,0,0,0,2.535.943,4.337,4.337,0,0,1,2.184.746c.578.6.041,1.394-.557,1.7a3.856,3.856,0,0,1-2.564.19c-.428-.1-.777-.313-1.186-.433s-.612.153-.834.453-.542.641-.19.964a3.561,3.561,0,0,0,1.279.535c1.8.537,4.264.449,5.5-1.186a2.628,2.628,0,0,0-1.079-4.052c-.716-.328,1.063.485,0,0m.284-3.056Z" transform="translate(-12.575 -3.008)" fill="#455366"/></g></g><g transform="translate(32.286 9.968)" opacity="0.99"><g clip-path="url(#f)"><path d="M25.962,11a15.578,15.578,0,0,0-2.851-.808c-.647-.157-1.658-.448-1.431-1.331.17-.665.98-.909,1.574-.98a5.222,5.222,0,0,1,2.505.355.873.873,0,0,0,.8.036,1.939,1.939,0,0,0,.678-.99c.032-.615-1.525-.889-1.97-.982a5.133,5.133,0,0,0-4.54.883,2.62,2.62,0,0,0,.153,3.953,6.1,6.1,0,0,0,2.535.943,4.337,4.337,0,0,1,2.184.746c.578.6.041,1.394-.557,1.7a3.856,3.856,0,0,1-2.564.19c-.428-.1-.777-.313-1.186-.433s-.612.153-.834.453-.542.643-.19.964a3.561,3.561,0,0,0,1.279.535c1.8.537,4.264.449,5.5-1.186A2.628,2.628,0,0,0,25.962,11c-.716-.328,1.063.485,0,0m.284-3.056Z" transform="translate(-19.897 -6.143)" fill="#455366"/></g></g><g transform="translate(43.982 4.881)" opacity="0.99"><g clip-path="url(#h)"><path d="M37.049,6.135a5.149,5.149,0,0,0-5.081-3.119,5.073,5.073,0,0,0-4.652,3.635,5.294,5.294,0,0,0,1.863,5.728,5.419,5.419,0,0,0,6.072.075,5.009,5.009,0,0,0,1.978-2.737,5.588,5.588,0,0,0,.2-1.817,5.685,5.685,0,0,0-.136-.977,4.684,4.684,0,0,1-.248-.787c-.258-.63,0,0,0,0M35.712,8.189a3.405,3.405,0,0,1-2.118,3.231,3.574,3.574,0,0,1-3.964-.94,3.72,3.72,0,0,1-.367-4.057,3.467,3.467,0,0,1,3.662-1.658,3.388,3.388,0,0,1,2.786,3.424c0,.51,0-.508,0,0" transform="translate(-27.104 -3.008)" fill="#455366"/></g></g><path d="M37.914,9.636A1.265,1.265,0,0,1,36.6,10.918h-.9V8.354h.9a1.262,1.262,0,0,1,1.311,1.282m-.414,0a.858.858,0,0,0-.894-.886H36.12v1.772h.487a.855.855,0,0,0,.894-.886" transform="translate(22.234 5.202)" fill="#455366"/><path d="M40.638,9.653a1.329,1.329,0,1,1-1.329-1.326,1.306,1.306,0,0,1,1.329,1.326m-2.241,0a.91.91,0,1,0,.912-.93.9.9,0,0,0-.912.93" transform="translate(23.65 5.185)" fill="#455366"/><path d="M41.4,9.963h-.4v.956h-.414V8.355h1.058a.782.782,0,0,1,.871.813.733.733,0,0,1-.644.772l.764.978h-.508Zm-.4-.367h.6c.341,0,.5-.175.5-.425s-.161-.42-.5-.42h-.6Z" transform="translate(25.279 5.202)" fill="#455366"/><path d="M45.225,8.355v2.562h-.414v-2l-.79,1.194h-.041l-.787-1.194v2H42.78V8.355h.487L44,9.46l.735-1.105Z" transform="translate(26.639 5.202)" fill="#455366"/><rect width="0.414" height="2.562" transform="translate(73.565 13.556)" fill="#455366"/><path d="M47.447,9.963h-.4v.956h-.414V8.355h1.058a.782.782,0,0,1,.871.813.733.733,0,0,1-.644.772l.764.978h-.508Zm-.4-.367h.6c.341,0,.5-.175.5-.425s-.161-.42-.5-.42h-.6Z" transform="translate(29.041 5.202)" fill="#455366"/><path d="M37.431,13.415c-.067-.07-.133-.133-.191-.2a1.237,1.237,0,0,1-.746.242c-.487,0-.88-.23-.88-.711,0-.329.2-.5.535-.7a.92.92,0,0,1-.271-.594.657.657,0,0,1,.72-.644.632.632,0,0,1,.693.623c0,.333-.242.523-.557.714.125.135.282.3.479.5a1.3,1.3,0,0,0,.128-.406h.422a1.486,1.486,0,0,1-.26.7c.135.143.286.3.449.469Zm-.462-.477c-.23-.242-.417-.435-.568-.6-.252.151-.368.239-.368.4,0,.2.167.341.487.341a.75.75,0,0,0,.449-.14m-.673-1.46a.618.618,0,0,0,.183.381c.3-.183.4-.276.4-.425a.245.245,0,0,0-.279-.245.272.272,0,0,0-.3.289" transform="translate(22.177 6.729)" fill="#455366"/><path d="M41.053,10.834,40.17,13.4h-.527l-.878-2.562h.44l.7,2.087.706-2.087Z" transform="translate(24.139 6.746)" fill="#455366"/><rect width="0.414" height="2.562" transform="translate(66.706 17.58)" fill="#455366"/><path d="M44.583,10.834,43.7,13.4h-.527l-.878-2.562h.44l.7,2.087.706-2.087Z" transform="translate(26.337 6.746)" fill="#455366"/><path d="M45.051,11.23v.662h1.168v.4H45.051V13H46.31v.4H44.637V10.834H46.31v.4Z" transform="translate(27.796 6.746)" fill="#455366"/><path d="M47.447,12.442h-.4V13.4h-.414V10.834h1.058a.782.782,0,0,1,.871.813.733.733,0,0,1-.644.772l.764.978h-.508Zm-.4-.367h.6c.341,0,.5-.175.5-.425s-.161-.42-.5-.42h-.6Z" transform="translate(29.041 6.746)" fill="#455366"/></g></g></g></svg>