<svg xmlns="http://www.w3.org/2000/svg" xmlns:xlink="http://www.w3.org/1999/xlink" width="59.854" height="35.954" viewBox="0 0 59.854 35.954"><defs><clipPath id="a"><rect width="59.854" height="35.954" fill="none"/></clipPath></defs><g clip-path="url(#a)"><path d="M37,35.271,22.819,21.094a2.334,2.334,0,0,0-3.3,0l-8.63,8.63a2.334,2.334,0,0,1-3.3,0L.683,22.819a2.334,2.334,0,0,1,0-3.3L19.518.684a2.334,2.334,0,0,1,3.3,0L37,14.866a2.334,2.334,0,0,0,3.3,0L48.965,6.2a2.333,2.333,0,0,1,3.3,0l6.905,6.9a2.334,2.334,0,0,1,0,3.3L40.3,35.271a2.334,2.334,0,0,1-3.3,0" transform="translate(0 0)" fill="#fff"/></g></svg>