<svg id="Grupo_1117" data-name="Grupo 1117" xmlns="http://www.w3.org/2000/svg" xmlns:xlink="http://www.w3.org/1999/xlink" width="259.173" height="44.608" viewBox="0 0 259.173 44.608">
  <defs>
    <clipPath id="clip-path">
      <rect id="Retângulo_545" data-name="Retângulo 545" width="259.173" height="44.608" fill="none"/>
    </clipPath>
    <clipPath id="clip-path-3">
      <rect id="Retângulo_541" data-name="Retângulo 541" width="203.644" height="18.441" fill="none"/>
    </clipPath>
  </defs>
  <g id="Grupo_1116" data-name="Grupo 1116" clip-path="url(#clip-path)">
    <g id="Grupo_1115" data-name="Grupo 1115">
      <g id="Grupo_1114" data-name="Grupo 1114" clip-path="url(#clip-path)">
        <path id="Caminho_983" data-name="Caminho 983" d="M302.553,55.966H116.316a17.3,17.3,0,0,1,0-34.595H302.553a17.3,17.3,0,1,1,0,34.595M116.316,23.66a15.009,15.009,0,0,0,0,30.018H302.553a15.009,15.009,0,1,0,0-30.018Z" transform="translate(-80.135 -17.295)" fill="#ccc6d2"/>
        <g id="Grupo_1113" data-name="Grupo 1113" transform="translate(27.478 12.271)" opacity="0.2">
          <g id="Grupo_1112" data-name="Grupo 1112">
            <g id="Grupo_1111" data-name="Grupo 1111" clip-path="url(#clip-path-3)">
              <rect id="Retângulo_533" data-name="Retângulo 533" width="17.807" height="18.441" transform="translate(82.594)" fill="#9873ac"/>
              <rect id="Retângulo_534" data-name="Retângulo 534" width="17.807" height="18.441" transform="translate(61.945)" fill="#9873ac"/>
              <rect id="Retângulo_535" data-name="Retângulo 535" width="17.807" height="18.441" transform="translate(41.297)" fill="#9873ac"/>
              <rect id="Retângulo_536" data-name="Retângulo 536" width="17.807" height="18.441" transform="translate(20.649 0)" fill="#9873ac"/>
              <rect id="Retângulo_537" data-name="Retângulo 537" width="17.807" height="18.441" transform="translate(103.242)" fill="#9873ac"/>
              <path id="Caminho_984" data-name="Caminho 984" d="M1127.111,64.343h-8.587V82.784h8.587a9.22,9.22,0,0,0,0-18.441" transform="translate(-932.688 -64.343)" fill="#9873ac"/>
              <path id="Caminho_985" data-name="Caminho 985" d="M153.3,82.783h8.587V64.342H153.3a9.22,9.22,0,1,0,0,18.441" transform="translate(-144.081 -64.342)" fill="#9873ac"/>
              <rect id="Retângulo_538" data-name="Retângulo 538" width="17.807" height="18.441" transform="translate(123.891)" fill="#9873ac"/>
              <rect id="Retângulo_539" data-name="Retângulo 539" width="17.807" height="18.441" transform="translate(165.188)" fill="#9873ac"/>
              <rect id="Retângulo_540" data-name="Retângulo 540" width="17.807" height="18.441" transform="translate(144.539)" fill="#9873ac"/>
            </g>
          </g>
        </g>
        <rect id="Retângulo_542" data-name="Retângulo 542" width="6.554" height="3.217" transform="translate(0 18.199)" fill="#7680b7"/>
        <path id="Caminho_986" data-name="Caminho 986" d="M1315.67,76.535v3.217h-3.476v3.476h-3.257V79.752h-3.475V76.535h3.475v-3.5h3.257v3.5Z" transform="translate(-1056.497 -59.11)" fill="#7680b7"/>
        <rect id="Retângulo_543" data-name="Retângulo 543" width="6.225" height="44.608" transform="translate(86.31)" fill="#7680b7"/>
      </g>
    </g>
  </g>
</svg>
