<svg xmlns="http://www.w3.org/2000/svg" xmlns:xlink="http://www.w3.org/1999/xlink" version="1.1" id="Camada_1" x="0px" y="0px" viewBox="0 0 248.5 248.6" style="enable-background:new 0 0 248.5 248.6;" xml:space="preserve">
<style type="text/css">
	.st0{fill:#fff;}
</style>
<g>
	<g>
		<g>
			<g>
				<polygon class="st0" points="163.3,167.3 104.1,167.3 71.2,78.5 51.3,74 52.1,70.3 74.1,75.2 106.6,163.4 160.5,163.4       181.6,99.8 185.3,101.2     "/>
			</g>
			<g>
				<polygon class="st0" points="81.6,99.1 186.1,99.1 184.7,103.1 81.6,103     "/>
			</g>
			<g>
				<rect x="88.9" y="119.6" class="st0" width="88.2" height="3.9"/>
			</g>
			<g>
				<rect x="96.4" y="140.1" class="st0" width="73.8" height="3.9"/>
			</g>
			<g>
				
					<rect x="111.8" y="99.6" transform="matrix(0.9684 -0.2494 0.2494 0.9684 -29.5599 32.5681)" class="st0" width="3.9" height="66.6"/>
			</g>
			<g>
				
					<rect x="120.5" y="131.2" transform="matrix(0.249 -0.9685 0.9685 0.249 -13.3778 248.9386)" class="st0" width="66.6" height="3.9"/>
			</g>
			<g>
				
					<rect x="130.6" y="101.2" transform="matrix(1 -9.943800e-03 9.943800e-03 1 -1.3189 1.3248)" class="st0" width="3.9" height="64.2"/>
			</g>
			<g>
				<path class="st0" d="M155.3,196.1c-3.2,0-6.4-1.2-8.7-3.5c-2.3-2.3-3.9-5.5-3.9-8.9c-0.2-7,5.4-12.7,12.2-12.7l0,0h0.2      c6.7,0,12.4,5.4,12.6,12.1c0.2,3.5-1.2,6.7-3.5,9.2C161.8,194.6,158.8,196.1,155.3,196.1C155.4,196.1,155.3,196.1,155.3,196.1z       M155.3,174.6C155.3,174.6,155.1,174.6,155.3,174.6h-0.2c-4.9,0.2-8.7,4-8.6,8.9c0,2.3,1,4.5,2.7,6.2c1.7,1.7,3.7,2.5,6.2,2.5      c2.3,0,4.5-1,6.2-2.7c1.7-1.7,2.5-4,2.5-6.5C164,178.5,160,174.6,155.3,174.6z"/>
			</g>
			<g>
				<path class="st0" d="M109.8,196.1c-3.4,0-6.4-1.3-8.9-3.7c-2.3-2.3-3.7-5.5-3.7-8.9c0-7,5.4-12.6,12.4-12.7      c3.5,0.2,6.5,1.2,8.9,3.5c2.3,2.3,3.7,5.5,3.9,8.9C122.6,190.2,116.9,195.9,109.8,196.1C110,196.1,110,196.1,109.8,196.1z       M109.8,174.6L109.8,174.6c-5,0-8.9,4-8.7,8.9l0,0c0,2.3,1,4.5,2.7,6.2s3.9,2.5,6.2,2.5c4.9,0,8.7-4,8.7-8.9      c0-2.3-1-4.5-2.7-6.2C114.4,175.6,112.2,174.6,109.8,174.6z"/>
			</g>
		</g>
	</g>
</g>
</svg>