<svg width="13" height="35" viewBox="0 0 13 35" fill="none" xmlns="http://www.w3.org/2000/svg">
<g clip-path="url(#clip0_2_17)">
<path d="M1.01572 0C0.831276 0 0.644759 0.0503035 0.476852 0.155899C0.000842094 0.455642 -0.143077 1.08631 0.155102 1.56481L10.0856 17.4998L0.155102 33.4352C-0.143077 33.9133 0.00125599 34.5444 0.476852 34.8441C0.95245 35.1438 1.58024 34.9988 1.87842 34.5207L12.1087 18.1039C12.21 17.9413 12.2638 17.7534 12.2638 17.5613V17.4383C12.2638 17.2462 12.21 17.0583 12.1087 16.8957L1.87842 0.479754C1.68528 0.170034 1.35443 0 1.01572 0Z" fill="#d4a8bf"/>
</g>
<defs>
<clipPath id="clip0_2_17">
<rect width="12.2638" height="35" fill="white" transform="matrix(-1 0 0 1 12.2638 0)"/>
</clipPath>
</defs>
</svg>
