<svg xmlns="http://www.w3.org/2000/svg" width="90" height="73.779" viewBox="0 0 90 73.779">
  <g id="Grupo_71" data-name="Grupo 71" transform="translate(-1143 -200)">
    <path id="Caminho_150" data-name="Caminho 150" d="M24.509,11.3,13.825.615a2.1,2.1,0,0,0-2.968,0L.615,10.858a2.1,2.1,0,0,0,2.968,2.968L10.289,7.12v.888c0,.564.028,1.137.055,1.691A14.054,14.054,0,0,1,7.837,19.46a10.384,10.384,0,0,0-1.8,6.644c.256,2.976,1.886,6.027,4.847,9.068,6.2,6.367,6.2,10.192.02,16.374C7.045,55.405,5.38,59.563,5.954,63.905a16.562,16.562,0,0,0,4.949,9.26A2.1,2.1,0,0,0,13.871,70.2a12.442,12.442,0,0,1-3.756-6.842c-.394-2.98.869-5.954,3.756-8.841,4.153-4.153,6.016-7.82,5.864-11.54-.14-3.412-1.942-6.721-5.844-10.729-2.612-2.684-5.261-6.3-2.535-10.5A18.248,18.248,0,0,0,14.536,9.494c-.026-.527-.05-1.024-.05-1.486v-.8l7.055,7.055A2.1,2.1,0,1,0,24.509,11.3" transform="translate(1143 200)" fill="#9873ac"/>
    <path id="Caminho_151" data-name="Caminho 151" d="M194.577,11.3,183.893.615a2.1,2.1,0,0,0-2.968,0L170.683,10.858a2.1,2.1,0,0,0,2.968,2.968l6.706-6.707v.888c0,.564.028,1.137.055,1.691a14.054,14.054,0,0,1-2.507,9.762,10.384,10.384,0,0,0-1.8,6.644c.256,2.976,1.886,6.027,4.847,9.068,6.2,6.367,6.2,10.192.02,16.374-3.858,3.858-5.523,8.016-4.949,12.358a16.562,16.562,0,0,0,4.949,9.26,2.1,2.1,0,1,0,2.968-2.968,12.442,12.442,0,0,1-3.756-6.842c-.394-2.98.869-5.954,3.756-8.841,4.153-4.153,6.016-7.82,5.864-11.54-.14-3.412-1.942-6.721-5.844-10.729-2.612-2.684-5.261-6.3-2.535-10.5A18.248,18.248,0,0,0,184.6,9.494c-.026-.527-.05-1.024-.05-1.486v-.8l7.055,7.055a2.1,2.1,0,1,0,2.968-2.968" transform="translate(1005.377 200)" fill="#9873ac"/>
    <path id="Caminho_152" data-name="Caminho 152" d="M364.577,11.3,353.893.615a2.1,2.1,0,0,0-2.968,0L340.683,10.858a2.1,2.1,0,0,0,2.968,2.968l6.706-6.707v.888c0,.564.028,1.137.055,1.691a14.054,14.054,0,0,1-2.507,9.762,10.384,10.384,0,0,0-1.8,6.644c.256,2.976,1.886,6.027,4.847,9.068,6.2,6.367,6.2,10.192.02,16.374-3.858,3.858-5.523,8.016-4.949,12.358a16.563,16.563,0,0,0,4.949,9.26,2.1,2.1,0,0,0,2.968-2.968,12.442,12.442,0,0,1-3.756-6.842c-.394-2.98.869-5.954,3.756-8.841,4.153-4.153,6.016-7.82,5.864-11.54-.14-3.412-1.942-6.721-5.844-10.729-2.612-2.684-5.261-6.3-2.535-10.5A18.248,18.248,0,0,0,354.6,9.494c-.026-.527-.05-1.024-.05-1.486v-.8l7.055,7.055a2.1,2.1,0,0,0,2.968-2.968" transform="translate(867.808 200)" fill="#9873ac"/>
  </g>
</svg>
