<svg id="Grupo_112" data-name="Grupo 112" xmlns="http://www.w3.org/2000/svg" width="302" height="97.621" viewBox="0 0 302 97.621">
  <path id="Caminho_129" data-name="Caminho 129" d="M122.956,12.216c1.178-5.145,2.313-10.367,2.324-10.429A1.5,1.5,0,0,0,124.1.028a1.5,1.5,0,0,0-1.761,1.19c-.009.05-.947,5.312-1.816,10.518-1.857,11.115-1.738,11.138-.97,11.289a.691.691,0,0,0,.339.016c.531-.153.958-1.645,3.061-10.825" transform="translate(153.252 0)" fill="#fff"/>
  <path id="Caminho_130" data-name="Caminho 130" d="M119.855,11.659c-1.553-5.044-3.182-10.134-3.2-10.2A1.493,1.493,0,0,0,115.9.6,1.456,1.456,0,0,0,114.756.53a1.5,1.5,0,0,0-.931,1.91c.018.05,1.835,5.076,3.685,10.017,3.733,9.978,4.04,10.488,4.687,10.3a1.163,1.163,0,0,0,.117-.039c.741-.252.856-.291-2.459-11.06" transform="translate(146.446 0.576)" fill="#fff"/>
  <path id="Caminho_131" data-name="Caminho 131" d="M130.574,22.305c-8.7-7.164-8.777-7.075-9.292-6.485s-.595.679,7.661,8.349c3.866,3.591,7.821,7.185,7.869,7.229a1.5,1.5,0,1,0,1.963-2.26c-.041-.034-4.127-3.477-8.2-6.833" transform="translate(155.902 20.054)" fill="#fff"/>
  <path id="Caminho_132" data-name="Caminho 132" d="M143.781,17.175c-.053-.009-5.314-.949-10.518-1.819-11.113-1.855-11.14-1.739-11.291-.97s-.174.885,10.811,3.4c5.142,1.178,10.365,2.31,10.429,2.324a1.5,1.5,0,0,0,.7-.027,1.555,1.555,0,0,0,.419-.2,1.5,1.5,0,0,0-.554-2.713" transform="translate(157.001 17.848)" fill="#fff"/>
  <path id="Caminho_133" data-name="Caminho 133" d="M142.155,8.657c-.05.018-5.076,1.835-10.019,3.685-10.552,3.951-10.513,4.063-10.262,4.8.185.54.254.748,4.451-.464,1.56-.451,3.692-1.1,6.611-1.995,5.044-1.553,10.134-3.182,10.2-3.2a1.5,1.5,0,1,0-.977-2.827" transform="translate(156.83 11.039)" fill="#fff"/>
  <path id="Caminho_134" data-name="Caminho 134" d="M120.989,20.986c.153.135.275.24.506.174.65-.188,2.182-1.741,7.844-7.835,3.591-3.866,7.185-7.821,7.229-7.869a1.5,1.5,0,1,0-2.26-1.963c-.034.041-3.477,4.127-6.833,8.2-7.164,8.7-7.075,8.777-6.485,9.292" transform="translate(155.459 3.83)" fill="#fff"/>
  <path id="Caminho_135" data-name="Caminho 135" d="M20.989,30.482c-2.045-.645-7.56-3.722-2.651-4.374,5.8-.769,12.03,1.151,17.41,3.1,1.107.4,2.83-1.572,3.182-2.352q2.117-4.7,4.236-9.395c.263-.583.668-1.482-.137-1.8-8.462-3.324-18.561-5.614-27.549-3.054C8.509,14.59,2.328,20.266,1.125,27.62c-.981,6,1.3,11.529,6.554,14.652A37.23,37.23,0,0,0,17.734,46.08c3.445.86,7.874,1.169,10.884,3.239.791.544,1.7,1.459,1.475,2.537-.263,1.288-4.463,1.219-5.957,1.162C18.649,52.8,13.34,51.094,8.31,49c-1-.416-2.917,1.409-3.408,2.8L.338,60.835c-.311.618-.627,1.443.137,1.8,13.073,6.1,36.028,9.118,43.6-6.949,2.473-5.243,2.413-12.236-1.62-16.7-5.387-5.968-14.318-6.245-21.468-8.5" transform="translate(0.001 14.817)" fill="#fff"/>
  <path id="Caminho_136" data-name="Caminho 136" d="M39.792,14.839v-1.6c0-.272-.062-.819-.48-.819h-12.8c-1.423,0-3.525,1.807-3.525,3.335V81.879c0,.272.062.819.48.819h12.8c1.423,0,3.525-1.8,3.525-3.333V65.18A29.2,29.2,0,0,0,73.67,56c8.391-10.763,8.148-27.333-1.556-37.174-8.937-8.484-21.612-9.1-32.323-3.992m0,32.766a13.35,13.35,0,0,1,0-3.418V29.573c5.36-3.239,12.8-3.408,17.849.49,5.593,4.323,7.592,13.146,2.5,18.6-4.639,3.889-11.9,3.8-17.17,1.178-.711-.352-1.334-.853-2.034-1.21,0,0-1.272-.606-1.148-.414-.087-.135.048-.453,0-.608" transform="translate(29.595 14.923)" fill="#fff"/>
  <path id="Caminho_137" data-name="Caminho 137" d="M105.8,12.411H93a3.761,3.761,0,0,0-2.786,1.743C76.35,8.122,60.571,12.922,53.285,26.928c-6.943,13.345-2.7,32.265,11.9,38.453,7.88,3.34,16.928,2.223,24.291-1.821v2.191c0,.272.064.819.48.819h12.8c1.423,0,3.525-1.8,3.525-3.333V13.228c0-.27-.064-.817-.48-.817M89.474,49.359c-8.386,5.106-21.169,1.517-22.964-9.013-1-5.858,1.857-11.582,7.906-12.854a18.445,18.445,0,0,1,15.059,3.7Z" transform="translate(64.412 14.935)" fill="#fff"/>
  <path id="Caminho_138" data-name="Caminho 138" d="M114,12.149c-6.615-2-13.464.972-18.4,5.52V13.336c0-.025-.007-.041-.007-.066.071-.419-.016-.753-.471-.753H82.231c-1.423,0-3.525,1.807-3.525,3.335V65.86c0,.27.064.817.48.817H92.079c1.425,0,3.525-1.8,3.525-3.333V44.135a45.584,45.584,0,0,1,.238-7.864c1.354-7.585,8.988-7.222,15.118-6.064,1.391.263,3.525-1.99,3.525-3.333V12.968c0-.391-.069-.7-.48-.819" transform="translate(101.335 14.827)" fill="#fff"/>
  <path id="Caminho_139" data-name="Caminho 139" d="M150.338,73.045,132.459,43.6,149.1,25.776c.169-.178,2.084-2.885.663-2.885H136.393c-1.716,0-2.674.027-4.06,1.308-.888.817-1.711,1.718-2.562,2.571q-7.95,7.985-15.9,15.971V4.278c0-.272-.062-.819-.48-.819h-12.8c-1.423,0-3.525,1.8-3.525,3.333v69.44c0,.272.062.819.48.819h12.8c1.423,0,3.525-1.8,3.525-3.333V63.543l6.419-6.176q5.49,8.77,10.98,17.536c.3.48.764,1.7,1.254,2,.881.538,2.834.146,3.8.146H147c1.45,0,4.317-2.4,3.34-4.005" transform="translate(124.971 4.455)" fill="#fff"/>
  <rect id="Retângulo_63" data-name="Retângulo 63" width="302" height="97.62" transform="translate(0 0.002)" fill="none"/>
</svg>
