<svg xmlns="http://www.w3.org/2000/svg" xmlns:xlink="http://www.w3.org/1999/xlink" width="171.294" height="76.622" viewBox="0 0 171.294 76.622">
  <defs>
    <clipPath id="clip-path">
      <rect id="Retângulo_94" data-name="Retângulo 94" width="171.294" height="76.622" fill="#9873ac"/>
    </clipPath>
  </defs>
  <g id="Grupo_70" data-name="Grupo 70" clip-path="url(#clip-path)">
    <path id="Caminho_169" data-name="Caminho 169" d="M184.057,119.239c-.04-1.292-.774-1.811-2.267-1.827-3.47-.038-6.941-.048-10.411-.063q-10.658-.045-21.315-.086c-.327,0-.654-.031-1.215-.058,0-2.882,0-5.627.009-8.371,0-1.653.062-3.307.016-4.958a5.656,5.656,0,0,0-4.157-5.367,5.75,5.75,0,0,0-6.311,2.518,6.762,6.762,0,0,0-.839,3.656q-.006,5.37-.038,10.741c0,.542-.036,1.084-.061,1.793-9.5-.032-18.939-.057-24.578-.075-.521-1.068-1.239-2.1-2.2-3.715-3.851-3.839-8.371-5.38-13.623-3.843a12.547,12.547,0,0,0-8.441,7.558c-5.649.018-15.034.043-24.486.075-.025-.709-.058-1.251-.061-1.793q-.026-5.371-.038-10.741a6.762,6.762,0,0,0-.839-3.656,5.75,5.75,0,0,0-6.311-2.518,5.656,5.656,0,0,0-4.157,5.367c-.046,1.651.012,3.305.016,4.958.006,2.745.006,5.49.009,8.371-.562.028-.888.057-1.215.058q-10.658.046-21.315.086c-3.47.015-6.941.025-10.411.063-1.494.016-2.228.535-2.267,1.827-.078,2.531-.055,5.067.015,7.6a1.781,1.781,0,0,0,1.791,1.823,9.783,9.783,0,0,0,1.32.032q30.486-.116,60.973-.232c.663,0,3.837.016,5.86.033v14.666c-3.461,1.158-5.267,3.645-5.67,7.293H79.955q-10.678,0-21.356,0a8.27,8.27,0,0,0-1.485.056,1.814,1.814,0,0,0-1.521,1.887,1.751,1.751,0,0,0,1.642,1.757,9.779,9.779,0,0,0,1.322.045q42.214,0,84.429,0a9.782,9.782,0,0,0,1.322-.044,1.752,1.752,0,0,0,1.647-1.753,1.816,1.816,0,0,0-1.518-1.889,8.208,8.208,0,0,0-1.485-.057q-10.678,0-21.356,0h-1.882c-.4-3.646-2.214-6.13-5.628-7.281V128.494c2.023-.017,5.21-.035,5.875-.033q30.487.113,60.973.232a9.78,9.78,0,0,0,1.319-.032,1.781,1.781,0,0,0,1.791-1.823c.069-2.532.093-5.068.015-7.6M141.339,104.4a3.079,3.079,0,0,1,.066-.657,1.828,1.828,0,0,1,1.871-1.53,1.849,1.849,0,0,1,1.824,1.768,9.464,9.464,0,0,1,.026.991q-.023,5.45-.055,10.9c0,.422-.064.844-.107,1.366l-3.487-.029a2.739,2.739,0,0,1-.163-.589q0-6.111.024-12.221M91.4,122.149a9.23,9.23,0,0,1,8.2-9.292A9.4,9.4,0,0,1,110.06,120.8a15.512,15.512,0,0,1,.105,1.817q.012,9.437,0,18.874c0,.382-.041.764-.073,1.324H91.53a4.8,4.8,0,0,1-.142-.8c-.007-6.622-.069-13.246.016-19.867M56.5,103.98a1.849,1.849,0,0,1,1.824-1.768,1.828,1.828,0,0,1,1.871,1.53,3.08,3.08,0,0,1,.066.657q.019,6.111.024,12.221a2.741,2.741,0,0,1-.163.589l-3.487.029c-.042-.523-.1-.944-.107-1.366q-.037-5.45-.055-10.9a9.465,9.465,0,0,1,.026-.991m-35.2,20.936c0-1.355-.009-2.442-.013-3.759,21.216-.078,44.735-.156,66.21-.234v3.189l.059-.017v.607c-20.856.072-45.6.143-66.256.215M115.7,150.194c-1.142.318-27.969.4-29.823.09a3.378,3.378,0,0,1,3.013-3.5,11.488,11.488,0,0,1,1.487-.055q10.43,0,20.86,0c.386,0,.774-.006,1.158.028a3.445,3.445,0,0,1,3.306,3.436m64.6-25.278c-20.64-.072-45.37-.143-66.218-.215-.018-1.559-.076-2.778-.184-3.78,21.53.079,45.131.157,66.415.235,0,1.317-.008,2.4-.013,3.759" transform="translate(-13.805 -77.578)" fill="#9873ac"/>
    <path id="Caminho_170" data-name="Caminho 170" d="M391.245,200.553a5.7,5.7,0,0,0,5.607-5.735,5.635,5.635,0,0,0-11.268.059,5.7,5.7,0,0,0,5.661,5.676m.041-7.527a1.945,1.945,0,0,1,1.811,1.8,1.878,1.878,0,0,1-3.755.026,1.926,1.926,0,0,1,1.944-1.83" transform="translate(-304.238 -149.351)" fill="#9873ac"/>
    <text id="Z" transform="translate(1.822 34.465) rotate(-3.267)" fill="#9873ac" font-size="37" font-family="ZonaPro-Black, 'ZonaPro \?'" font-weight="800"><tspan x="0" y="0">Z</tspan></text>
    <text id="Z-2" data-name="Z" transform="translate(141.166 31.843) rotate(4.969)" fill="#9873ac" font-size="37" font-family="ZonaPro-Black, 'ZonaPro \?'" font-weight="800"><tspan x="0" y="0">Z</tspan></text>
  </g>
</svg>
