<svg id="Grupo_57" data-name="Grupo 57" xmlns="http://www.w3.org/2000/svg" xmlns:xlink="http://www.w3.org/1999/xlink" width="137.154" height="66.933" viewBox="0 0 137.154 66.933">
  <defs>
    <clipPath id="clip-path">
      <rect id="Retângulo_89" data-name="Retângulo 89" width="137.154" height="66.933" fill="#9873ac"/>
    </clipPath>
  </defs>
  <g id="Grupo_56" data-name="Grupo 56" clip-path="url(#clip-path)">
    <path id="Caminho_146" data-name="Caminho 146" d="M468.158,141.037c-.024-.2-.052-.4-.082-.6l-.292.045,0,0,.292-.045a17.373,17.373,0,0,0-18.215-14.7c-.693.041-1.395.124-2.074.2l-.675.079c-.009-.052-.016-.1-.021-.149a17.382,17.382,0,0,0-9.461-14.083l-.021-.01a1.732,1.732,0,0,1-.233-.118l-.023-.013a19.633,19.633,0,0,0-2.888-1.144l-.017,0a23.724,23.724,0,0,0-4.966-.654,17.541,17.541,0,0,0-12.272,5.289,17.35,17.35,0,0,0-4.938,12.043h-.018c-.2-.015-.374-.029-.544-.051a13.472,13.472,0,0,0-14.592,9.2,1.008,1.008,0,0,1-.645.686l-.021.008c-.725.314-1.427.684-2.106,1.042l-.026.016a14.351,14.351,0,0,0-4.324,4.548,11.651,11.651,0,0,0-1.332,4,2.258,2.258,0,0,1-.119.369l-.023.055v2.717l.036.142c.075.3.152.609.22.911a12.111,12.111,0,0,0,11.874,9.732l.238,0c8.259.008,16.577.012,24.894.012s16.635,0,24.9-.012a19.4,19.4,0,0,0,2.269-.147,17.43,17.43,0,0,0,15.218-19.356m-14.344,15.946a16.966,16.966,0,0,1-3.47.323c-6.172.021-12.449.019-18.518.016q-6.612,0-13.223,0c-5.836,0-11.87.005-17.809-.007a8.915,8.915,0,0,1-9.022-8.808,8.964,8.964,0,0,1,6.291-8.627,2.592,2.592,0,0,0,1.994-2.072,10.229,10.229,0,0,1,12.494-7.24c.146.039.293.081.436.126a2.155,2.155,0,0,0,2.029-.092,2.117,2.117,0,0,0,.545-1.925,13.979,13.979,0,0,1,2.426-9.393c3.224-4.561,7.584-6.618,12.96-6.115a14.14,14.14,0,0,1,8.3,3.549,14.708,14.708,0,0,1,4.39,7.914,15.076,15.076,0,0,1,.253,2.865c.017,1.058.229,1.678.685,2.009a2.274,2.274,0,0,0,2.039.04,14.2,14.2,0,1,1,8.415,27.117c-.4.124-.81.231-1.218.319Zm.057.29h0l-.01-.05.011.05Z" transform="translate(-331.128 -93.619)" fill="#9873ac"/>
    <path id="Caminho_147" data-name="Caminho 147" d="M337.2,100.471a4.027,4.027,0,0,1-.861-2.659c0-.06.008-.118.013-.176l.034-.4-.373.06q-1.295.207-2.6.421l-.25.041,0,.254a7.331,7.331,0,0,0,.612,2.85,5.827,5.827,0,0,0-2.536,6.1c-.125.2-.236.392-.346.583a1.117,1.117,0,0,0-.052.1,6.137,6.137,0,0,0-.41,1.3l-.078.4.4-.049a20.5,20.5,0,0,1,2.808-.164l.176,0,.086-.154a2.184,2.184,0,0,1,.42-.538,1.115,1.115,0,0,0,.276-1.221,1.862,1.862,0,0,1-.142-.652,1.116,1.116,0,0,0-.027-.226,2.7,2.7,0,0,1,1.81-3.145l.116-.034a1.6,1.6,0,0,0,.94-2.674Z" transform="translate(-281.559 -82.876)" fill="#9873ac"/>
    <path id="Caminho_148" data-name="Caminho 148" d="M396.868,87.3a7.287,7.287,0,0,0,5.486,2.5h0a7.3,7.3,0,0,0,3.832-1.078l.082-.052a7.3,7.3,0,0,0,2.692-9.032,5.828,5.828,0,0,0,2.536-6.1c.125-.2.236-.392.346-.583a1.106,1.106,0,0,0,.052-.1,6.177,6.177,0,0,0,.524-2.646q0-.021,0-.041A5.2,5.2,0,0,0,412,68.415a1.1,1.1,0,0,0-.15-.374l-.566-.892a1.093,1.093,0,0,0-.275-.3,5.2,5.2,0,0,0-1.4-1.125l-.034-.018a6.176,6.176,0,0,0-2.616-.655,1.129,1.129,0,0,0-.116,0c-.218.017-.442.035-.675.064a5.828,5.828,0,0,0-6.6-.308c-.116-.132-.239-.264-.369-.392l-.364-.36-.13.495a4.6,4.6,0,0,1-1.281,2.209l-.189.179.154.21a4.062,4.062,0,0,1,.362.59l.014.026a1.6,1.6,0,0,0,2.82.289c.026-.03.052-.06.079-.089a2.682,2.682,0,0,1,3.529-.36,1.1,1.1,0,0,0,.4.181,2.332,2.332,0,0,1,.823.446l.038.027a1.1,1.1,0,0,0,.947.146,2.138,2.138,0,0,1,2.16,3.566,1.105,1.105,0,0,0-.293,1.007,2.036,2.036,0,0,1,.052.759,1.108,1.108,0,0,0,.111.714,2.716,2.716,0,0,1-1.86,2.836l-.116.034A1.595,1.595,0,0,0,405.516,80l.019.025a4.028,4.028,0,0,1,.861,2.659A3.9,3.9,0,0,1,404.536,86l-.019.012a3.892,3.892,0,0,1-3.787.27,4.038,4.038,0,0,1-2.046-1.918l-.014-.026a1.693,1.693,0,0,0-1.313-1,1.714,1.714,0,0,0-1.507.714c-.025.03-.051.059-.078.088a2.651,2.651,0,0,1-1.457.805l-.269.052.031.272c0,.016,0,.033.007.049s0,.021,0,.032a3.99,3.99,0,0,1-.478,2.376l-.254.448.515-.007a5.836,5.836,0,0,0,3-.869" transform="translate(-335.257 -54.493)" fill="#9873ac"/>
    <path id="Caminho_149" data-name="Caminho 149" d="M59.126,30.831a4.973,4.973,0,0,0-3.809-4.453,17.658,17.658,0,0,0-7.147-.109c-1.286.2-2.568.493-3.807.774-.636.144-1.294.293-1.939.427-.736.153-1.59.325-2.428.437a.565.565,0,0,1-.526-.13.519.519,0,0,1,.04-.5,14.53,14.53,0,0,1,1.507-2.615c1.976-2.532,4.171-5.253,6.908-8.563a1.565,1.565,0,0,1,.848-.439c2.485-.427,5.019-.83,7.469-1.221q1.472-.235,2.945-.471a5.2,5.2,0,0,0,4.675-4.435A5.08,5.08,0,0,0,62.6,5.377a4.937,4.937,0,0,0-3.874-1.669c-1.062.042-2.125.162-3.154.277-.417.047-.834.094-1.251.135q-3.616.363-7.235.73l-2.3.232A5.319,5.319,0,0,0,41.4,1.86a5.407,5.407,0,0,0-4.511.672A5.138,5.138,0,0,0,32.3,0a5.525,5.525,0,0,0-4.41,2.451l-.072-.079A7.81,7.81,0,0,0,26.183.9a5.187,5.187,0,0,0-6.877,1.389C15.6,6.816,11.764,11.5,8.084,16.208a14.875,14.875,0,0,0-3.527,9.972,3.578,3.578,0,0,1-1.016,2.855c-.715.78-1.368,1.62-2,2.433q-.232.3-.465.6A4.121,4.121,0,0,0,.747,37.21c0,.023.009.045.015.066l.059.235L16.207,49.937l.136.041c2.643.8,3.847.419,5.6-1.755l.327-.409c.23-.288.468-.586.707-.868a4.9,4.9,0,0,1,2.36-1.705,13.32,13.32,0,0,1,2.161-.4,32.96,32.96,0,0,0,9.343-2.223c.924-.4,1.823-.865,2.693-1.316.584-.3,1.188-.615,1.786-.9a68.563,68.563,0,0,1,12.139-4.587,17.477,17.477,0,0,1,2-.373,4.14,4.14,0,0,0,3.664-4.614M4.229,35.49c-.63-.509-.681-.55-.11-1.26l.225-.28c.934-1.162,1.9-2.364,2.859-3.537a4.319,4.319,0,0,0,1.091-3.355,10.906,10.906,0,0,1,2.247-7.843c1.305-1.8,2.757-3.552,4.16-5.247.618-.746,1.256-1.517,1.876-2.284l.452-.56-.058-.048.832-1.031q2.068-2.562,4.141-5.12a4.508,4.508,0,0,1,.672-.7A1.579,1.579,0,0,1,24.5,4.2a1.452,1.452,0,0,1,.346,1.988c-.244.363-.515.707-.8,1.072-.262.333-.533.678-.784,1.04a1.706,1.706,0,0,0,.343,2.388,1.734,1.734,0,0,0,2.383-.025,5.363,5.363,0,0,0,.629-.671q.85-1.048,1.7-2.1,1.32-1.635,2.646-3.267a3.438,3.438,0,0,1,.644-.652,1.5,1.5,0,0,1,1.913.208,1.549,1.549,0,0,1,.052,2.1c-.56.735-1.159,1.469-1.737,2.178q-.415.508-.827,1.018-.223.277-.448.553c-.406.5-.826,1.015-1.222,1.545a1.817,1.817,0,0,0,.191,2.468,1.846,1.846,0,0,0,2.473.021,4.314,4.314,0,0,0,.595-.636q1.038-1.282,2.072-2.567C35.948,9.262,37.28,7.61,38.6,6a1.633,1.633,0,0,1,1.221-.651,1.563,1.563,0,0,1,1.1,2.662q-2.012,2.506-4.036,5L35,15.342l-.092.113a4.608,4.608,0,0,0-.362.482,1.84,1.84,0,0,0,2.822,2.336,4.1,4.1,0,0,0,.426-.48l.078-.1q.83-1.028,1.662-2.054c1.647-2.034,3.351-4.137,5.007-6.224a1.6,1.6,0,0,1,1.232-.659c1.9-.18,3.826-.389,5.688-.59q1.155-.125,2.31-.248L54.9,7.8c1.207-.129,2.455-.263,3.682-.382a1.322,1.322,0,0,1,1.347.664A1.357,1.357,0,0,1,59.924,9.6c-.232.4-.606.592-1.379.713q-2.293.362-4.584.731-2.952.473-5.906.939a4.634,4.634,0,0,0-3.028,1.746q-1.142,1.425-2.3,2.84c-1.456,1.793-2.961,3.646-4.4,5.506a23.128,23.128,0,0,0-2.13,3.494,4.125,4.125,0,0,0,4.493,5.991c.971-.2,1.95-.416,2.9-.629,1.193-.269,2.426-.547,3.64-.773a19.026,19.026,0,0,1,7-.239A1.34,1.34,0,0,1,55.386,31a.826.826,0,0,1,.031.528c-.037.061-.186.149-.491.214-.284.061-.569.111-.87.164-.448.079-.912.161-1.373.279A71.149,71.149,0,0,0,39.844,37c-.64.3-1.275.629-1.889.945-.887.457-1.805.928-2.725,1.32A30.968,30.968,0,0,1,26.4,41.226,8.138,8.138,0,0,0,21.779,43a26.628,26.628,0,0,0-2.443,2.6q-.247.287-.5.573c-.552.633-.6.638-1.233.125q-6.691-5.4-13.379-10.8" transform="translate(0 -0.001)" fill="#9873ac"/>
  </g>
</svg>
